<?xml version="1.0" encoding="utf-8"?>
<!-- Generator: Adobe Illustrator 21.0.2, SVG Export Plug-In . SVG Version: 6.00 Build 0)  -->
<svg version="1.1" id="Layer_1" xmlns="http://www.w3.org/2000/svg" xmlns:xlink="http://www.w3.org/1999/xlink" x="0px" y="0px"
	 viewBox="0 0 187 185" style="enable-background:new 0 0 187 185;" xml:space="preserve">
<style type="text/css">
	.st0{opacity:0.85;fill:#FFFFFF;}
	.st1{opacity:0.5;fill:#FFFFFF;}
	.st2{fill:#E66B5B;}
	.st3{fill:#1FA8CD;}
</style>
<g>
	<path class="st0" d="M42.1,126C42.1,126,42.1,126,42.1,126c0,6.1-0.1,12.1,0,18.2c0.1,3.6,2.1,4.7,5.5,3c2.5-1.3,5-2.8,7.4-4.1
		c8.6-4.7,17.2-9.4,25.7-14.2c3.2-1.8,3.3-4.3,0.2-6c-10.8-5.9-21.6-11.9-32.4-17.7c-4.6-2.5-6.5-1.4-6.5,3.7
		C42.1,114.6,42.1,120.3,42.1,126z"/>
	<path class="st0" d="M58.9,175.8c-13.3,0-25.8-5.2-35.2-14.6C14.2,151.8,9,139.3,9,126s5.2-25.8,14.6-35.2
		c9.4-9.4,21.9-14.6,35.2-14.6s25.8,5.2,35.2,14.6c9.4,9.4,14.6,21.9,14.6,35.2c0,13.3-5.2,25.8-14.6,35.2
		C84.7,170.6,72.2,175.8,58.9,175.8z M58.9,83.4c-11.4,0-22,4.4-30.1,12.5c-8,8-12.5,18.7-12.5,30.1c0,11.4,4.4,22,12.5,30.1
		c8,8,18.7,12.5,30.1,12.5c11.4,0,22-4.4,30.1-12.5c8-8,12.5-18.7,12.5-30.1c0-11.4-4.4-22-12.5-30.1C80.9,87.9,70.2,83.4,58.9,83.4
		z"/>
</g>
<path class="st1" d="M117.7,10.1c0.9,0,1.8,0.4,2.5,1.1l12.8,13.2c1.4,1.4,1.4,3.7,0,5.1l-12.8,13.2c-1.4,1.4-3.6,1.4-5,0
	c-1.4-1.4-1.4-3.7,0-5.2l10.3-10.7l-10.3-10.7c-1.4-1.4-1.4-3.7,0-5.2C115.9,10.4,116.8,10.1,117.7,10.1z"/>
<g>
	<path class="st2" d="M15.4,17.5c-2.7,0-4.9,2.2-4.9,4.9s2.2,4.9,4.9,4.9s4.9-2.2,4.9-4.9S18.1,17.5,15.4,17.5z"/>
	<path class="st2" d="M20.2,27.3c-1.2,1.2-2.9,1.9-4.7,1.9s-3.5-0.7-4.7-1.9c-1.3,1.2-2.1,3-2.1,4.9v1.9c0,0.5,0.4,1,1,1h11.7
		c0.5,0,1-0.4,1-1v-1.9C22.2,30.3,21.4,28.6,20.2,27.3z"/>
</g>
<path class="st2" d="M74.3,19.9c-2.8,0-5.1,2.3-5.1,5.1c0,0.6,0.1,1.2,0.3,1.8l-6.3,6.3l0,3l3,0l0-1.8l1.8,0l0-1.8l1.8,0l2.7-2.7
	c0.5,0.2,1.1,0.3,1.8,0.3c2.8,0,5.1-2.3,5.1-5.1S77.1,19.9,74.3,19.9z M75.7,25.3c-1,0-1.8-0.8-1.8-1.8c0-1,0.8-1.8,1.8-1.8
	c1,0,1.8,0.8,1.8,1.8S76.8,25.3,75.7,25.3z"/>
<g id="bX9JwN.tif_1_">
	<g>
		<path class="st3" d="M176,28.9c0.8,0.9,0.8,1.3-0.1,2.1c-0.2,0.2-0.1,0.2,0,0.3c0.5,1,0.1,1.7-1,1.7c-2.6,0-5.2,0-7.7,0
			c-0.5,0-0.8-0.1-0.8-0.7c0-2.1-0.1-4.1,0.1-6.2c0.1-1.5,0.7-2.8,1.7-4c0.3-0.4,0.6-0.8,0.9-1.1c0.8-0.7,1.1-1.5,1-2.5
			c-0.1-0.5,0.2-1,0.8-1.1c0.5-0.1,1.1,0.2,1.3,0.7c0.5,1.1,0.5,2.1,0.2,3.2c-0.2,0.5-0.4,1-0.6,1.5c-0.3,0.6-0.2,0.6,0.4,0.7
			c1.1,0,2.3,0,3.4,0c0.6,0,1.1,0.2,1.3,0.7c0.2,0.6,0.1,1.3-0.4,1.7c-0.1,0.1-0.4,0.2-0.1,0.4C177.2,27.6,177.1,28.2,176,28.9z"/>
		<path class="st3" d="M165.2,30c0,1.2,0,2.4,0,3.6c0,0.5-0.2,0.7-0.7,0.7c-1,0-1.9,0-2.9,0c-0.5,0-0.7-0.2-0.7-0.7
			c0-2.4,0-4.8,0-7.2c0-0.5,0.2-0.7,0.7-0.7c1,0,1.9,0,2.9,0c0.5,0,0.7,0.2,0.7,0.7C165.2,27.6,165.2,28.8,165.2,30z"/>
	</g>
</g>
</svg>
