<svg xmlns="http://www.w3.org/2000/svg" xmlns:xlink="http://www.w3.org/1999/xlink" viewBox="0 0 285.9 85.8"><defs><clipPath id="a"><polygon points="170.1 12.6 170.1 20.6 170.3 22.4 164.1 12.6 161.7 12.6 161.7 26.3 163.9 26.3 163.9 17.9 163.9 16.1 170.3 26.3 172.3 26.3 172.3 12.6 170.1 12.6" fill="none"/></clipPath><clipPath id="b"><path d="M152.9,12.4a6.14,6.14,0,0,0-4.9,2,7.73,7.73,0,0,0-2,5.1,6.86,6.86,0,0,0,2,5.1,6.42,6.42,0,0,0,4.9,2,6.14,6.14,0,0,0,4.9-2,7.73,7.73,0,0,0,2-5.1,6.86,6.86,0,0,0-2-5.1,6.14,6.14,0,0,0-4.9-2m4.9,7.1a5,5,0,0,1-1.4,3.7,4.2,4.2,0,0,1-3.5,1.4,4.6,4.6,0,0,1-3.5-1.4,5,5,0,0,1-1.4-3.7,5,5,0,0,1,1.4-3.7,4.46,4.46,0,0,1,3.5-1.4,4.6,4.6,0,0,1,3.5,1.4,5.4,5.4,0,0,1,1.4,3.7" fill="none"/></clipPath><clipPath id="c"><polygon points="131.4 14.6 135.1 14.6 135.1 26.3 137.3 26.3 137.3 14.6 141 14.6 141 12.6 131.4 12.6 131.4 14.6" fill="none"/></clipPath><clipPath id="d"><rect x="127.7" y="12.6" width="2" height="13.7" fill="none"/></clipPath><clipPath id="e"><polygon points="112.2 14.6 115.8 14.6 115.8 26.3 117.9 26.3 117.9 14.6 121.6 14.6 121.6 12.6 112.2 12.6 112.2 14.6" fill="none"/></clipPath><clipPath id="f"><path d="M256.9,55.1a6.48,6.48,0,0,0-.8-3.5,4.1,4.1,0,0,0-3.7-1.8,4.73,4.73,0,0,0-3.7,1.8,7.62,7.62,0,0,0-1.4,3.5Zm4.3,1.2a6.17,6.17,0,0,1-.2,2H247.3a6.07,6.07,0,0,0,2,4.7,6.73,6.73,0,0,0,4.5,1.4,15.84,15.84,0,0,0,5.5-1l.8,3.3a18.65,18.65,0,0,1-7,1.2,10.09,10.09,0,0,1-7.6-2.9c-1.9-1.9-2.7-4.3-2.7-7.6a12,12,0,0,1,2.5-7.8,8.43,8.43,0,0,1,7.2-3.3c3.1,0,5.3,1,6.8,3.3A11.69,11.69,0,0,1,261.2,56.3Z" fill="none"/></clipPath><clipPath id="g"><path d="M240.7,51c-.4,0-1-.2-1.4-.2a4.21,4.21,0,0,0-3.7,1.8,6.65,6.65,0,0,0-1.2,4.1V67.5h-4.5V53.4c0-2.5,0-4.5-.2-6.6h4.1l.2,3.9h.2a6,6,0,0,1,2.3-3.3,4.81,4.81,0,0,1,3.3-1H241v4.5h-.3Z" fill="none"/></clipPath><clipPath id="h"><path d="M221.1,57.4a9.88,9.88,0,0,0-1.2-4.9,4.64,4.64,0,0,0-4.1-2.5,4.75,4.75,0,0,0-4.3,2.5,10.6,10.6,0,0,0,0,9.8,4.88,4.88,0,0,0,4.1,2.5,4.46,4.46,0,0,0,4.1-2.5A9.31,9.31,0,0,0,221.1,57.4Zm4.7-.2a11.09,11.09,0,0,1-2.7,7.8,10,10,0,0,1-7.6,3.1,8.7,8.7,0,0,1-7.2-3.1,10.87,10.87,0,0,1-2.7-7.6,10.89,10.89,0,0,1,2.9-7.8,9.71,9.71,0,0,1,7.6-3.1,9.38,9.38,0,0,1,7.4,3.1A12.94,12.94,0,0,1,225.8,57.2Z" fill="none"/></clipPath><clipPath id="i"><path d="M203,50.4h-5.1v10c0,2.5.8,3.9,2.7,3.9a6.17,6.17,0,0,0,2-.2l.2,3.5a8.6,8.6,0,0,1-3.5.4,6,6,0,0,1-4.3-1.6c-1-1-1.4-2.9-1.4-5.5V50.5h-3.3V47h3.1V43.3l4.5-1.4V47H203v3.4Z" fill="none"/></clipPath><clipPath id="j"><path d="M187.9,59.6a7.23,7.23,0,0,1-2.5,5.9,11.58,11.58,0,0,1-7.8,2.5,13.51,13.51,0,0,1-7.4-1.8l1-3.9a12.85,12.85,0,0,0,6.6,1.8,6.65,6.65,0,0,0,4.1-1.2,3.66,3.66,0,0,0,1.4-3.1,4,4,0,0,0-1.2-2.9,14.16,14.16,0,0,0-3.9-2.3c-4.9-1.8-7.6-4.5-7.6-8.2a6.7,6.7,0,0,1,2.7-5.7,11.09,11.09,0,0,1,7-2.3,13.42,13.42,0,0,1,6.6,1.4l-1.2,3.7a12.34,12.34,0,0,0-5.5-1.2,5.15,5.15,0,0,0-3.7,1.2,3.29,3.29,0,0,0-1.2,2.7,4,4,0,0,0,1.2,2.9,31.55,31.55,0,0,0,4.1,2.3c2.5,1,4.3,2,5.5,3.5A6,6,0,0,1,187.9,59.6Z" fill="none"/></clipPath><clipPath id="k"><path d="M156.6,57.2a7.51,7.51,0,0,0-1.4-4.9,4.5,4.5,0,0,0-3.9-2,5.22,5.22,0,0,0-3.1,1,6.53,6.53,0,0,0-1.8,2.9,3.9,3.9,0,0,0-.2,1.4v3.5a5.86,5.86,0,0,0,1.4,3.9,4.46,4.46,0,0,0,3.7,1.6,4.73,4.73,0,0,0,4.1-2A10.54,10.54,0,0,0,156.6,57.2Zm4.7,0a12.07,12.07,0,0,1-2.9,8.4,8.32,8.32,0,0,1-6.3,2.7,6.51,6.51,0,0,1-5.9-2.9h0V76.2h-4.5V53.9c0-2.3,0-4.5-.2-6.8h4.1l.2,3.3h0c1.4-2.5,3.9-3.7,7-3.7a7.63,7.63,0,0,1,6.1,2.9C160.5,51.4,161.3,53.9,161.3,57.2Z" fill="none"/></clipPath><clipPath id="l"><path d="M132.8,57.2a7.51,7.51,0,0,0-1.4-4.9,4.5,4.5,0,0,0-3.9-2,5.22,5.22,0,0,0-3.1,1,6.53,6.53,0,0,0-1.8,2.9,3.9,3.9,0,0,0-.2,1.4v3.5a5.86,5.86,0,0,0,1.4,3.9,4.18,4.18,0,0,0,3.7,1.6,4.73,4.73,0,0,0,4.1-2A10.54,10.54,0,0,0,132.8,57.2Zm4.7,0a12.07,12.07,0,0,1-2.9,8.4,8.32,8.32,0,0,1-6.3,2.7,6.51,6.51,0,0,1-5.9-2.9h0V76.2h-4.5V53.9c0-2.3,0-4.5-.2-6.8h4.1l.2,3.3h0c1.4-2.5,3.9-3.7,7-3.7a7.63,7.63,0,0,1,6.1,2.9C136.7,51.4,137.5,53.9,137.5,57.2Z" fill="none"/></clipPath><clipPath id="m"><path d="M105.6,55.7l-2.5-7.4c-.2-.8-.8-2.5-1.4-5.3h0c-.2,1.2-.8,3.1-1.4,5.3l-2.5,7.4Zm8.2,11.9h-4.9l-2.7-8.4H97l-2.5,8.4H89.8L99,39.1h5.7Z" fill="none"/></clipPath><clipPath id="n"><path d="M256.9,22.8a3.77,3.77,0,0,0-.4-1.6,2.1,2.1,0,0,0-1.8-1,2,2,0,0,0-1.8.8,2.44,2.44,0,0,0-.6,1.8Zm2.2.6v1h-6.8a2.93,2.93,0,0,0,1,2.3,3.71,3.71,0,0,0,2.3.6,11.72,11.72,0,0,0,2.7-.4l.4,1.6a8.8,8.8,0,0,1-3.5.6,4.49,4.49,0,0,1-3.7-1.4,6,6,0,0,1-1.4-3.7,6.45,6.45,0,0,1,1.2-3.9,4.33,4.33,0,0,1,3.5-1.6,3.69,3.69,0,0,1,3.3,1.6A5.86,5.86,0,0,1,259.1,23.4Z" fill="none"/></clipPath><clipPath id="o"><path d="M246.8,28.9h-2.3V23.2c0-1.8-.6-2.7-2-2.7a2.57,2.57,0,0,0-2.3,1.6c0,.2-.2.4-.2.8V29h-2.3V14.3H240v6.1h0a3.35,3.35,0,0,1,3.1-1.6,3.09,3.09,0,0,1,2.3.8,4.49,4.49,0,0,1,1.2,3.5v5.7h.2Z" fill="none"/></clipPath><clipPath id="p"><path d="M235,20.5h-2.5v4.9q0,1.8,1.2,1.8a1.5,1.5,0,0,0,1-.2v1.6a4.44,4.44,0,0,1-1.8.2,2.32,2.32,0,0,1-2-.8,4.55,4.55,0,0,1-.8-2.7V20.4h-1.4V18.8h1.4V17l2.3-.6v2.5h2.5l.1,1.6Z" fill="none"/></clipPath><clipPath id="q"><path d="M219.6,28.9h-2.3V23.2c0-1.8-.6-2.7-2-2.7a1.82,1.82,0,0,0-1.6.8,2.27,2.27,0,0,0-.6,1.6v5.9h-2.3V18.7h2l.2,1.6h0a3.87,3.87,0,0,1,3.2-1.8,3.93,3.93,0,0,1,2.5.8,4.31,4.31,0,0,1,1.2,3.3v6.1h-.3Z" fill="none"/></clipPath><clipPath id="r"><path d="M205.3,23.8a5.42,5.42,0,0,0-.6-2.5,2.27,2.27,0,0,0-4,0,4.4,4.4,0,0,0-.6,2.5,5.13,5.13,0,0,0,.6,2.5,2.27,2.27,0,0,0,4,0A5.42,5.42,0,0,0,205.3,23.8Zm2.2,0a5.14,5.14,0,0,1-5.1,5.5,4.32,4.32,0,0,1-3.5-1.4,5.86,5.86,0,0,1-1.2-3.7,5.21,5.21,0,0,1,1.4-3.9,4.36,4.36,0,0,1,3.7-1.4,5,5,0,0,1,3.7,1.4A5.21,5.21,0,0,1,207.5,23.8Z" fill="none"/></clipPath><clipPath id="s"><path d="M186.1,24.6V22.4a3.22,3.22,0,0,0-.8-1.4,2.16,2.16,0,0,0-1.4-.6,2.78,2.78,0,0,0-2,1,4.36,4.36,0,0,0-.8,2.5,4.63,4.63,0,0,0,.6,2.5,2.46,2.46,0,0,0,2,1,2,2,0,0,0,1.8-.8A6.3,6.3,0,0,0,186.1,24.6Zm2.2,4.3h-2l-.2-1.6h0a3.26,3.26,0,0,1-3.3,1.8,3.79,3.79,0,0,1-3.1-1.4,5.87,5.87,0,0,1-1.2-3.7,6.05,6.05,0,0,1,1.2-3.9,3.66,3.66,0,0,1,3.1-1.4,3,3,0,0,1,2.9,1.4h0V14.4H188V26.5A6.09,6.09,0,0,1,188.3,28.9Z" fill="none"/></clipPath><clipPath id="t"><path d="M173.2,25.4V23.8c-2.5,0-3.7.6-3.7,2a1.69,1.69,0,0,0,.4,1.2,1.53,1.53,0,0,0,1,.4,3.71,3.71,0,0,0,1.4-.4,2.55,2.55,0,0,0,.8-1.2A1,1,0,0,0,173.2,25.4Zm2.4,3.5h-2l-.2-1.2h0a3.7,3.7,0,0,1-5.2.6,2.27,2.27,0,0,1-.8-2,3.36,3.36,0,0,1,1.6-2.9,8.53,8.53,0,0,1,4.3-1v-.2c0-1.4-.6-2-2-2a4.49,4.49,0,0,0-2.7.8l-.4-1.4a6.27,6.27,0,0,1,3.5-.8c2.7,0,3.9,1.4,3.9,4.1v3.7A4.44,4.44,0,0,0,175.6,28.9Z" fill="none"/></clipPath><clipPath id="u"><path d="M162.3,23.8a5.42,5.42,0,0,0-.6-2.5,2.27,2.27,0,0,0-4,0,4.4,4.4,0,0,0-.6,2.5,5.14,5.14,0,0,0,.6,2.5,2.2,2.2,0,0,0,2,1.2,2.43,2.43,0,0,0,2-1.2A5.42,5.42,0,0,0,162.3,23.8Zm2.3,0a5.14,5.14,0,0,1-5.1,5.5,4.32,4.32,0,0,1-3.5-1.4,5.87,5.87,0,0,1-1.2-3.7,5.21,5.21,0,0,1,1.4-3.9,4.36,4.36,0,0,1,3.7-1.4,5,5,0,0,1,3.7,1.4A5.83,5.83,0,0,1,164.6,23.8Z" fill="none"/></clipPath><clipPath id="v"><rect x="149.2" y="14.2" width="2.3" height="14.7" fill="none"/></clipPath><clipPath id="w"><path d="M145.1,28.9h-2.3V23.2c0-1.8-.6-2.7-2-2.7a1.82,1.82,0,0,0-1.6.8,2.27,2.27,0,0,0-.6,1.6v5.9h-2.3V18.7h2l.2,1.6h0a3.87,3.87,0,0,1,3.2-1.8,3.93,3.93,0,0,1,2.5.8,4.31,4.31,0,0,1,1.2,3.3v6.1h-.3Z" fill="none"/></clipPath><clipPath id="x"><path d="M133.4,18.7l-3.1,10h-2l-1.2-4.3a19.81,19.81,0,0,1-.8-3.3h0a19.81,19.81,0,0,1-.8,3.3l-1.4,4.3h-2l-3.1-10h2.3l1.2,4.7q.3,1.8.6,3.3h0c.2-.8.4-1.8.8-3.3l1.4-4.9h1.8l1.4,4.7a26.05,26.05,0,0,1,.8,3.3h0c.2-1,.4-2,.6-3.3l1.2-4.7,2.3.2Z" fill="none"/></clipPath><clipPath id="y"><path d="M114.2,23.8a5.42,5.42,0,0,0-.6-2.5,2.27,2.27,0,0,0-4,0,4.4,4.4,0,0,0-.6,2.5,5.14,5.14,0,0,0,.6,2.5,2.2,2.2,0,0,0,2,1.2,2.43,2.43,0,0,0,2-1.2A5.42,5.42,0,0,0,114.2,23.8Zm2.5,0a5.14,5.14,0,0,1-5.1,5.5,4.32,4.32,0,0,1-3.5-1.4,5.87,5.87,0,0,1-1.2-3.7,5.21,5.21,0,0,1,1.4-3.9,4.36,4.36,0,0,1,3.7-1.4,5,5,0,0,1,3.7,1.4A5.83,5.83,0,0,1,116.7,23.8Z" fill="none"/></clipPath><clipPath id="z"><path d="M101.7,21.5a5.15,5.15,0,0,0-1.2-3.7c-.8-.8-2-1.2-3.9-1.2a5.54,5.54,0,0,0-1.8.2V27.3h1.4a5.69,5.69,0,0,0,4.1-1.4A7.21,7.21,0,0,0,101.7,21.5Zm2.3,0a7,7,0,0,1-2.3,5.7A9.22,9.22,0,0,1,95.8,29a16.19,16.19,0,0,1-3.3-.2V15.1a24.22,24.22,0,0,1,3.9-.2,8.39,8.39,0,0,1,5.5,1.6C103.3,17.4,104,19.3,104,21.5Z" fill="none"/></clipPath><clipPath id="aa"><path d="M63.2,42.4c0-7,5.7-10.2,5.9-10.4a12.42,12.42,0,0,0-10-5.3c-4.3-.4-8.4,2.5-10.4,2.5-2.3,0-5.5-2.5-9-2.5a13.6,13.6,0,0,0-11.3,6.8c-4.9,8.4-1.2,20.7,3.5,27.6,2.3,3.3,5.1,7,8.6,7,3.5-.2,4.7-2.3,9-2.3,4.1,0,5.3,2.3,9,2,3.7,0,6.1-3.3,8.4-6.8a37.43,37.43,0,0,0,3.9-7.8C70.6,53.5,63.4,50.8,63.2,42.4Z" fill="none"/></clipPath><clipPath id="ab"><path d="M56.5,22.2a13.34,13.34,0,0,0,2.9-8.8,12.47,12.47,0,0,0-8,4.1c-1.6,2-3.3,5.3-2.9,8.4C51.4,26.2,54.4,24.4,56.5,22.2Z" fill="none"/></clipPath></defs><title>Asset 2</title><g clip-path="url(#a)"><rect x="154.7" y="5.4" width="24.8" height="28" fill="#fff"/></g><g clip-path="url(#b)"><rect x="138.8" y="5.2" width="28.2" height="28.7" fill="#fff"/></g><g clip-path="url(#c)"><rect x="124.4" y="5.4" width="23.7" height="28" fill="#fff"/></g><g clip-path="url(#d)"><rect x="120.5" y="5.4" width="16.4" height="28" fill="#fff"/></g><g clip-path="url(#e)"><rect x="105" y="5.4" width="23.7" height="28" fill="#fff"/></g><path d="M0,8.6A8.66,8.66,0,0,1,8.6,0H277.3a8.66,8.66,0,0,1,8.6,8.6V77.2a8.66,8.66,0,0,1-8.6,8.6H8.6A8.66,8.66,0,0,1,0,77.2Z"/><g clip-path="url(#f)"><rect x="235.6" y="39.3" width="32.5" height="35.6" fill="#fff"/></g><g clip-path="url(#g)"><rect x="222.5" y="39.6" width="25.4" height="35.2" fill="#fff"/></g><g clip-path="url(#h)"><rect x="198.3" y="39.6" width="34.6" height="35.8" fill="#fff"/></g><g clip-path="url(#i)"><rect x="183.2" y="34.8" width="26.8" height="40.3" fill="#fff"/></g><g clip-path="url(#j)"><rect x="162.9" y="31.6" width="32.1" height="43.6" fill="#fff"/></g><g clip-path="url(#k)"><rect x="134.3" y="39.6" width="34.2" height="43.6" fill="#fff"/></g><g clip-path="url(#l)"><rect x="110.5" y="39.6" width="34.2" height="43.6" fill="#fff"/></g><g clip-path="url(#m)"><rect x="82.5" y="32" width="38.5" height="42.8" fill="#fff"/></g><g clip-path="url(#n)"><rect x="243" y="11.3" width="23.3" height="24.8" fill="#fff"/></g><g clip-path="url(#o)"><rect x="230.9" y="7" width="23.1" height="29.1" fill="#fff"/></g><g clip-path="url(#p)"><rect x="221.5" y="9.1" width="20.5" height="27.2" fill="#fff"/></g><g clip-path="url(#q)"><rect x="203.7" y="11.3" width="23.1" height="24.6" fill="#fff"/></g><g clip-path="url(#r)"><rect x="190.6" y="11.3" width="24.2" height="24.8" fill="#fff"/></g><g clip-path="url(#s)"><rect x="171.5" y="7" width="24" height="29.3" fill="#fff"/></g><g clip-path="url(#t)"><rect x="160.1" y="11.3" width="22.5" height="24.8" fill="#fff"/></g><g clip-path="url(#u)"><rect x="147.6" y="11.3" width="24.2" height="24.8" fill="#fff"/></g><g clip-path="url(#v)"><rect x="142" y="7" width="16.6" height="29.1" fill="#fff"/></g><g clip-path="url(#w)"><rect x="129.1" y="11.3" width="23.1" height="24.6" fill="#fff"/></g><g clip-path="url(#x)"><rect x="111.7" y="11.5" width="29.1" height="24.4" fill="#fff"/></g><g clip-path="url(#y)"><rect x="99.5" y="11.3" width="24.2" height="24.8" fill="#fff"/></g><g clip-path="url(#z)"><rect x="85.3" y="7.6" width="25.8" height="28.5" fill="#fff"/></g><g clip-path="url(#aa)"><rect x="18.8" y="19.5" width="59" height="55.9" fill="#fff"/></g><g clip-path="url(#ab)"><rect x="41.1" y="6.2" width="25.4" height="27" fill="#fff"/></g></svg>