<svg xmlns="http://www.w3.org/2000/svg" viewBox="0 0 204 204"><title>Asset 14</title><path d="M67.8,102h0c0,12.5-.2,24.8,0,37.3.2,7.4,4.3,9.6,11.3,6.1,5.1-2.7,10.2-5.7,15.1-8.4,17.6-9.6,35.2-19.2,52.6-29.1,6.6-3.7,6.8-8.8.4-12.3C125.1,83.5,103,71.2,80.9,59.4c-9.4-5.1-13.3-2.9-13.3,7.6C67.8,78.7,67.8,90.4,67.8,102Z" fill="#fff" opacity="0.85" style="isolation:isolate"/><path d="M102.2,204a101.29,101.29,0,0,1-72.1-29.9,101.64,101.64,0,0,1-.2-144.2A102,102,0,0,1,204,102,102.09,102.09,0,0,1,102.2,204Zm0-189.2A87.4,87.4,0,0,0,15,102a87.4,87.4,0,0,0,87.2,87.2A87.4,87.4,0,0,0,189.4,102a86.22,86.22,0,0,0-25.6-61.6A87.05,87.05,0,0,0,102.2,14.8Z" fill="#fff" opacity="0.85" style="isolation:isolate"/></svg>