<svg xmlns="http://www.w3.org/2000/svg" xmlns:xlink="http://www.w3.org/1999/xlink" viewBox="0 0 67.44 71.39"><defs><clipPath id="a" transform="translate(-2.15)"><rect width="71.6" height="71.6" fill="none"/></clipPath></defs><title>Asset 6</title><g clip-path="url(#a)"><path d="M3.5,44.4s-2.9-2.7-.2-5.3a3.51,3.51,0,0,1,5.3-.2L21.5,50.8c-.2-.2.8-1.8.8-1.8L4.5,32.4s-2.9-2.7-.2-5.3a3.51,3.51,0,0,1,5.3-.2L26.4,42.5l1.2-1.4L8.2,23.1S5.3,20.4,8,17.8a3.51,3.51,0,0,1,5.3-.2l19.4,18,1.4-1.2L15.9,17.6s-2.9-2.7-.2-5.3a3.51,3.51,0,0,1,5.3-.2S34.5,24.6,40.2,29.9s7,3.9,7,3.9l-5.1-4.7-5.9-5.5s-2.9-2.7-.2-5.3a3.51,3.51,0,0,1,5.3-.2L56.4,32.2A22.57,22.57,0,1,1,25.7,65.3c-.4-.4-1.4-1.2-1.2-1.4h0L3.5,44.4Z" transform="translate(-2.15)" fill="#d99773"/></g><g clip-path="url(#a)"><path d="M9.3,40.5s-2.9-2.7-.2-5.3a3.51,3.51,0,0,1,5.3-.2L27.3,46.8c-.2-.2.8-1.8.8-1.8L10.3,28.4s-2.9-2.7-.2-5.3a3.51,3.51,0,0,1,5.3-.2L32.2,38.5l1.2-1.4L14,19.1s-2.9-2.7-.2-5.3a3.51,3.51,0,0,1,5.3-.2l19.4,18,1.4-1.2L21.7,13.6s-2.9-2.7-.2-5.3a3.51,3.51,0,0,1,5.3-.2S40.3,20.6,46,25.9s7,3.9,7,3.9l-5.1-4.7L42,19.6s-2.9-2.7-.2-5.3a3.51,3.51,0,0,1,5.3-.2L62.3,28A22.57,22.57,0,1,1,31.6,61.1c-.4-.4-1.4-1.2-1.2-1.4h0L9.3,40.5Z" transform="translate(-2.15)" fill="#fbc799"/></g><path d="M48.8,12.9a2.84,2.84,0,0,1-1.2-.4,2.23,2.23,0,0,1-.4-2.9L53.3,2a2.23,2.23,0,0,1,2.9-.4,2.23,2.23,0,0,1,.4,2.9l-5.9,7.6a4.32,4.32,0,0,1-1.9.8" transform="translate(-2.15)" fill="#f99c3b"/><path d="M37.9,13.9a2,2,0,0,1-2-2V2a2,2,0,0,1,4,0V12a2.05,2.05,0,0,1-2,1.9" transform="translate(-2.15)" fill="#f99c3b"/><path d="M56.5,19.2A1.75,1.75,0,0,1,54.7,18a1.89,1.89,0,0,1,1.2-2.5l9.2-3.3a2,2,0,1,1,1.3,3.7l-9.2,3.3h-.7" transform="translate(-2.15)" fill="#f99c3b"/></svg>