<svg xmlns="http://www.w3.org/2000/svg" xmlns:xlink="http://www.w3.org/1999/xlink" viewBox="0 0 62.2 62.2"><defs><radialGradient id="a" cx="-4.79" cy="45.68" r="61.37" gradientUnits="userSpaceOnUse"><stop offset="0" stop-color="#fd5"/><stop offset="0.1" stop-color="#fd5"/><stop offset="0.5" stop-color="#ff543e"/><stop offset="1" stop-color="#c837ab"/></radialGradient></defs><title>insta</title><path d="M31.1,0A31.1,31.1,0,1,0,62.2,31.1,31.07,31.07,0,0,0,31.1,0Z" fill="url(#a)"/><path d="M31.3,19.4H37a6.78,6.78,0,0,1,2.7.4,4.2,4.2,0,0,1,2.6,2.6,6.41,6.41,0,0,1,.4,2.7V36.5a6.78,6.78,0,0,1-.4,2.7,4.2,4.2,0,0,1-2.6,2.6,6.41,6.41,0,0,1-2.7.4H25.6a6.78,6.78,0,0,1-2.7-.4,4.2,4.2,0,0,1-2.6-2.6,6.41,6.41,0,0,1-.4-2.7V25.1a6.78,6.78,0,0,1,.4-2.7,4.2,4.2,0,0,1,2.6-2.6,6.41,6.41,0,0,1,2.7-.4h5.7m0-2.7H25.4a13.94,13.94,0,0,0-3.5.6,6,6,0,0,0-2.5,1.6,7.58,7.58,0,0,0-1.6,2.5,8.16,8.16,0,0,0-.6,3.5V36.7a13.94,13.94,0,0,0,.6,3.5,6,6,0,0,0,1.6,2.5,7.58,7.58,0,0,0,2.5,1.6,8.16,8.16,0,0,0,3.5.6H37.2a13.94,13.94,0,0,0,3.5-.6,6,6,0,0,0,2.5-1.6,13.25,13.25,0,0,0,1.6-2.5,8.16,8.16,0,0,0,.6-3.5V24.9a13.94,13.94,0,0,0-.6-3.5,6,6,0,0,0-1.6-2.5,7.58,7.58,0,0,0-2.5-1.6,8.16,8.16,0,0,0-3.5-.6Z" fill="#fff"/><path d="M31.3,23.7a7.4,7.4,0,1,0,7.4,7.4A7.38,7.38,0,0,0,31.3,23.7Zm0,12.1A4.7,4.7,0,1,1,36,31.1,4.57,4.57,0,0,1,31.3,35.8Z" fill="#fff"/><circle cx="38.9" cy="23.5" r="1.6" fill="#fff"/></svg>