<svg xmlns="http://www.w3.org/2000/svg" viewBox="0 0 589.69 288.68"><title>ticket</title><path d="M543.76,141.86a45.93,45.93,0,0,0,45.93,45.93v95.88a5,5,0,0,1-5,5H5a5,5,0,0,1-5-5V187.79a45.93,45.93,0,0,0,45.93-45.93A45.93,45.93,0,0,0,0,95.91V5A5,5,0,0,1,5,0H584.67a5,5,0,0,1,5,5V95.91A45.93,45.93,0,0,0,543.76,141.86Z" fill="#f1f2f2"/><line x1="521.93" x2="521.93" y2="6" fill="none" stroke="#d1d3d4" stroke-miterlimit="10"/><line x1="521.93" y1="10.99" x2="521.93" y2="280.18" fill="none" stroke="#d1d3d4" stroke-miterlimit="10" stroke-dasharray="11.99 4.99"/><line x1="521.93" y1="282.68" x2="521.93" y2="288.68" fill="none" stroke="#d1d3d4" stroke-miterlimit="10"/><path d="M11,0V97.25A44.86,44.86,0,0,0,0,95.91V5A5,5,0,0,1,5,0Z" fill="#e6e7e8"/><path d="M0,187.79a45.47,45.47,0,0,0,11-1.34V288.68H5a5,5,0,0,1-5-5Z" fill="#e6e7e8"/></svg>