<svg xmlns="http://www.w3.org/2000/svg" viewBox="0 0 65.6 65.6"><title>Asset 13</title><path d="M32.8,65.6A32.8,32.8,0,1,1,65.6,32.8,32.88,32.88,0,0,1,32.8,65.6Zm0-63.8A31.1,31.1,0,1,0,63.9,32.9,31.07,31.07,0,0,0,32.8,1.8Z" fill="#ff00bd"/><path d="M33,21.2h5.7a6.78,6.78,0,0,1,2.7.4A4.2,4.2,0,0,1,44,24.2a6.41,6.41,0,0,1,.4,2.7V38.3A6.78,6.78,0,0,1,44,41a4.2,4.2,0,0,1-2.6,2.6,6.41,6.41,0,0,1-2.7.4H27.3a6.78,6.78,0,0,1-2.7-.4A4.2,4.2,0,0,1,22,41a6.41,6.41,0,0,1-.4-2.7V26.9a6.78,6.78,0,0,1,.4-2.7,4.2,4.2,0,0,1,2.6-2.6,6.41,6.41,0,0,1,2.7-.4H33m0-2.7H27.1a13.94,13.94,0,0,0-3.5.6,6,6,0,0,0-2.5,1.6,7.58,7.58,0,0,0-1.6,2.5,8.16,8.16,0,0,0-.6,3.5V38.5a13.94,13.94,0,0,0,.6,3.5,6,6,0,0,0,1.6,2.5,7.58,7.58,0,0,0,2.5,1.6,8.16,8.16,0,0,0,3.5.6H38.9a13.94,13.94,0,0,0,3.5-.6,6,6,0,0,0,2.5-1.6A13.25,13.25,0,0,0,46.5,42a8.16,8.16,0,0,0,.6-3.5V26.7a13.94,13.94,0,0,0-.6-3.5,6,6,0,0,0-1.6-2.5,7.58,7.58,0,0,0-2.5-1.6,8.16,8.16,0,0,0-3.5-.6Z" fill="#ff00bd"/><path d="M33,25.5a7.4,7.4,0,1,0,7.4,7.4A7.38,7.38,0,0,0,33,25.5Zm0,12.1a4.7,4.7,0,1,1,4.7-4.7A4.57,4.57,0,0,1,33,37.6Z" fill="#ff00bd"/><circle cx="40.6" cy="25.3" r="1.6" fill="#ff00bd"/></svg>