<svg xmlns="http://www.w3.org/2000/svg" viewBox="0 0 32.99 34.74"><title>Asset 9</title><path d="M30.9,23.64c1.6,1.8,1.6,2.7-.2,4.3-.4.4-.2.4,0,.6,1,2,.2,3.5-2,3.5H12.9c-1,0-1.6-.2-1.6-1.4,0-4.3-.2-8.4.2-12.7A13.73,13.73,0,0,1,15,9.74c.6-.8,1.2-1.6,1.8-2.3a5.4,5.4,0,0,0,2-5.1A2,2,0,0,1,20.4,0a2.55,2.55,0,0,1,2.7,1.4A9.42,9.42,0,0,1,23.5,8c-.4,1-.8,2-1.2,3.1-.6,1.2-.4,1.2.8,1.4h7a2.68,2.68,0,0,1,2.7,1.4,3.23,3.23,0,0,1-.8,3.5c-.2.2-.8.4-.2.8C33.3,21,33.1,22.24,30.9,23.64Z" fill="#1fa8cd"/><path d="M8.7,25.94v7.4c0,1-.4,1.4-1.4,1.4H1.4c-1,0-1.4-.4-1.4-1.4V18.64c0-1,.4-1.4,1.4-1.4H7.3c1,0,1.4.4,1.4,1.4Z" fill="#1fa8cd"/></svg>