<svg xmlns="http://www.w3.org/2000/svg" viewBox="0 0 65.6 65.6"><title>Asset 12</title><path d="M32.8,65.6A32.8,32.8,0,1,1,65.6,32.8,32.88,32.88,0,0,1,32.8,65.6Zm0-63.8A31.1,31.1,0,1,0,63.9,32.9,31.07,31.07,0,0,0,32.8,1.8Z" fill="#2f97ed"/><path d="M47.1,25.5a17.9,17.9,0,0,1-3.5,1,5.9,5.9,0,0,0,2.7-3.3,14,14,0,0,1-3.7,1.4,5.66,5.66,0,0,0-4.3-1.8,5.91,5.91,0,0,0-5.9,5.9,3.9,3.9,0,0,0,.2,1.4A17,17,0,0,1,20.5,24a6.71,6.71,0,0,0-.8,3.1A5.66,5.66,0,0,0,22.4,32a4.49,4.49,0,0,1-2.7-.8h0a5.64,5.64,0,0,0,4.7,5.7,3.9,3.9,0,0,1-1.6.2,1.5,1.5,0,0,1-1-.2A5.92,5.92,0,0,0,27.3,41a11.6,11.6,0,0,1-7.4,2.5H18.5a17.58,17.58,0,0,0,9,2.7c10.8,0,16.8-9,16.8-16.8v-.8a14,14,0,0,0,2.8-3.1" fill="#2f97ed"/></svg>