<svg xmlns="http://www.w3.org/2000/svg" xmlns:xlink="http://www.w3.org/1999/xlink" viewBox="0 0 1471.4 244.45"><defs><linearGradient id="a" x1="724.06" y1="165.36" x2="730.76" y2="175.14" gradientUnits="userSpaceOnUse"><stop offset="0" stop-color="#ccc"/><stop offset="1" stop-color="#ccc"/></linearGradient></defs><title>error</title><path d="M0,241.88l6,.43" fill="none" stroke="#e6e7e8" stroke-miterlimit="10"/><path d="M11,242.63c146.65,8.94,234.29-29.2,287.79-67,76.37-54,95.64-116,165.52-123.56C512.14,46.91,531.48,72.93,651,138.9c121.13,66.86,181.7,100.29,241.42,101.59,128.17,2.79,223.9-91.09,228.87-96.1,44.24-44.63,38.09-67.66,73.75-98.75,41.08-35.81,116.61-64,268-29.43" fill="none" stroke="#e6e7e8" stroke-miterlimit="10" stroke-dasharray="11.97 4.99"/><path d="M1465.45,16.76l5.84,1.37" fill="none" stroke="#e6e7e8" stroke-miterlimit="10"/><polygon points="773.83 241.18 674.71 203.24 544.97 113.52 652.24 62.7 782 152.7 888.11 184.47 773.83 241.18" fill="#ccc"/><path d="M613.89,77.23s17.06,14.37,2.33,19-37.53,0-37.53,0Z" fill="#fff"/><path d="M758.35,88.25,651,138.9,544.88,113.35l36-17c14.51,3.49,34.21,2.59,44-2s5.92-11.18-8.6-14.68l36-17Z" fill="#f3f3f3"/><path d="M695.07,109.68l-22.58-5.44-13.25,6.25,26,6.25-2.32,1.09-30-7.23,32.49-15.33,29.87,7.19-2.32,1.09-25.8-6.21-12.27,5.79,22.58,5.44Z" fill="#ccc"/><polygon points="782 152.7 674.65 203.34 650.99 138.9 758.35 88.25 782 152.7" fill="#e6e6e5"/><path d="M708.91,124.53,705.79,116l-13.54,6.39-.92-2.5,32.49-15.33,3.5,9.53a11.53,11.53,0,0,1,.17,8.52,11.39,11.39,0,0,1-6.07,6,10,10,0,0,1-6.11.95,8,8,0,0,1-4.92-2.87l-11.14,13.86-.29.14L698,138Zm-.81-9.61,2.79,7.59a6.36,6.36,0,0,0,3.81,4.09,7.34,7.34,0,0,0,5.79-.51A8.08,8.08,0,0,0,725,115.15l-2.56-7Z" fill="#ccc"/><path d="M718.52,150.71l-3.13-8.52-13.54,6.39-.92-2.5,32.49-15.33,3.5,9.53a11.53,11.53,0,0,1,.17,8.52,11.39,11.39,0,0,1-6.07,6,10,10,0,0,1-6.11.95,8,8,0,0,1-4.92-2.87l-11.14,13.86-.29.14-1-2.64Zm-.81-9.61,2.79,7.59a6.36,6.36,0,0,0,3.81,4.09,7.34,7.34,0,0,0,5.79-.51,8.08,8.08,0,0,0,4.48-10.93l-2.56-7Z" fill="#ccc"/><path d="M739.12,163.21a7.3,7.3,0,0,1,5.73,4.94,9.13,9.13,0,0,1,.48,1.85l2.44-1.15a12.27,12.27,0,0,0-.52-1.83,9.71,9.71,0,0,0-4-5.11,11.41,11.41,0,0,0-6.74-1.54,22.35,22.35,0,0,0-8.39,2.29l-3.35,1.58q-6.92,3.26-9.83,8.35a11.61,11.61,0,0,0-1,10.22,11.9,11.9,0,0,0,.76,1.67l2.42-1.14a9.07,9.07,0,0,1-.8-1.65,8.93,8.93,0,0,1,1-8.16q2.49-4,8.27-6.74l3.4-1.6Q734.89,162.35,739.12,163.21Z" fill="url(#a)"/><path d="M808.15,197.24c-9.77,4.61-5.92,11.18,8.6,14.68l-36,17L674.65,203.35,782,152.7l106.11,25.55-36,17C837.6,191.73,817.92,192.63,808.15,197.24Z" fill="#f3f3f3"/><path d="M772.75,188.58l-14-3.38-13.54,6.39-4.11-1,32.49-15.33,15.68,3.78q7.73,1.86,9.55,4.09t-2.7,4.37a24.89,24.89,0,0,1-8.22,1.94,49.65,49.65,0,0,1-10.59-.2l-1.76,9.43-.29.14-4.34-1ZM761,184.11l12.5,3a37.85,37.85,0,0,0,10.22,1.06,21.16,21.16,0,0,0,8.21-1.65q3.44-1.62,2.09-3.3t-7.22-3.09l-11.51-2.77Z" fill="#ccc"/><path d="M754.49,175.3q1-2.12-1.47-4a17.34,17.34,0,0,0-5.24-2.45L745.33,170q4.26,1.43,4.74,3.39.61,2.52-5.25,5.29l-3.43,1.62a38.68,38.68,0,0,1-13.17,3.45,43.71,43.71,0,0,1-11.14-.42l-2.42,1.14a58,58,0,0,0,8.74.89,56.8,56.8,0,0,0,11.8-.88,41.34,41.34,0,0,0,10.17-3.16l3.88-1.83Q753.5,177.41,754.49,175.3Z" fill="#ccc"/><path d="M821.19,219.94s-17.06-14.37-2.33-19,37.53,0,37.53,0Z" fill="#fff"/><path d="M751.62,221.88c.11,0,2.08-.92,5.41-2.58" fill="none" stroke="#e6e7e8" stroke-miterlimit="10"/><path d="M761.29,217.15c20.21-10.19,66.48-34.08,84.58-43.43" fill="none" stroke="#e6e7e8" stroke-miterlimit="10" stroke-dasharray="11.47 4.78"/><path d="M848,172.62l5.33-2.75" fill="none" stroke="#e6e7e8" stroke-miterlimit="10"/><line x1="592.73" y1="124.87" x2="598.17" y2="122.33" fill="none" stroke="#e6e7e8" stroke-miterlimit="10"/><line x1="602.72" y1="120.21" x2="693.22" y2="78.02" fill="none" stroke="#e6e7e8" stroke-miterlimit="10" stroke-dasharray="12.04 5.02"/><line x1="695.5" y1="76.96" x2="700.94" y2="74.42" fill="none" stroke="#e6e7e8" stroke-miterlimit="10"/><path d="M793.85,115.33H763.26a.85.85,0,0,1-.72-1.29l.45-.73c-.12.23-.4.86-.13,1.25s.56.3,1.56.3c1.24,0,2.28,0,2.57-.06,1,0,1.52,0,2.37.06,1.85.08,3.45,0,7.39-.1,4.2-.11,6.3-.16,8.05-.12s2.73.1,5.15.11c1.35,0,2.51,0,3.41,0a.4.4,0,0,0,.35-.6c-.26-.49-.59-1.09-1-1.77-1.72-3.07-2.92-4.84-4.56-7.46-1.8-2.88-2.71-4.32-3.77-6.27-1.47-2.71-3.74-5-4.85-7.88-.08-.21-.33-.89-.9-1.07a1.48,1.48,0,0,0-1.17.24l.33-.53a.84.84,0,0,1,1.43,0L794.57,114A.85.85,0,0,1,793.85,115.33Z" fill="#e6e6e5" opacity="0.5"/></svg>