<svg xmlns="http://www.w3.org/2000/svg" xmlns:xlink="http://www.w3.org/1999/xlink" viewBox="0 0 285.9 85.8"><defs><clipPath id="a"><path d="M145.5,48.5a9.2,9.2,0,1,0,9.2,9.2A9.17,9.17,0,0,0,145.5,48.5Zm0,14.6a5.16,5.16,0,0,1-5.1-5.5,5.28,5.28,0,0,1,5.1-5.5,5.35,5.35,0,0,1,5.1,5.5A5.28,5.28,0,0,1,145.5,63.1Zm-20-14.6a9.2,9.2,0,1,0,9.2,9.2A8.93,8.93,0,0,0,125.5,48.5Zm0,14.6a5.16,5.16,0,0,1-5.1-5.5,5.28,5.28,0,0,1,5.1-5.5,5.16,5.16,0,0,1,5.1,5.5A5.35,5.35,0,0,1,125.5,63.1Zm-24-11.9v3.9h9.2a8.21,8.21,0,0,1-2,4.9,9.51,9.51,0,0,1-7.2,2.9,10.2,10.2,0,1,1,0-20.4,9.45,9.45,0,0,1,7,2.9l2.7-2.7a13,13,0,0,0-9.8-3.9,14.1,14.1,0,1,0,0,28.2,12.78,12.78,0,0,0,9.8-3.9c2.7-2.5,3.3-6.1,3.3-9a11,11,0,0,0-.2-2.5H101.6v-.4Zm97.4,3.1c-.8-2-3.1-5.7-7.8-5.7s-8.6,3.7-8.6,9.2a9,9,0,0,0,16.6,5.1l-3.1-2a5.48,5.48,0,0,1-4.5,2.5,5,5,0,0,1-4.5-2.7l12.3-5.1Zm-12.4,3a4.91,4.91,0,0,1,4.7-5.3,4.06,4.06,0,0,1,3.5,1.8Zm-9.9,8.8h4.1V39.3h-4.1Zm-6.5-15.5h0a7.37,7.37,0,0,0-4.9-2,9.24,9.24,0,0,0-8.8,9.2,8.92,8.92,0,0,0,8.8,9,6.77,6.77,0,0,0,4.9-2h.2V66c0,3.5-1.8,5.3-4.9,5.3a4.86,4.86,0,0,1-4.5-3.3l-3.5,1.4a8.6,8.6,0,0,0,8.2,5.3c4.7,0,8.6-2.9,8.6-9.4V48.9h-3.9v1.6h-.2Zm-4.7,12.5a5.16,5.16,0,0,1-5.1-5.5,5.16,5.16,0,0,1,5.1-5.5c2.7,0,4.9,2.3,4.9,5.5S168.2,63.1,165.4,63.1Zm52.4-23.8h-9.6V66.1h4.1V55.9h5.5a8.53,8.53,0,0,0,8.8-8.4C226.6,42.6,222.3,39.3,217.8,39.3Zm.2,12.9h-5.7V43H218a4.58,4.58,0,0,1,4.7,4.5A4.69,4.69,0,0,1,218,52.2Zm24.8-3.9c-2.9,0-5.9,1.2-7.2,4.1l3.5,1.4a4.17,4.17,0,0,1,3.7-2,4.06,4.06,0,0,1,4.3,3.5v.2a9.38,9.38,0,0,0-4.1-1c-3.9,0-7.8,2-7.8,5.9,0,3.7,3.1,5.9,6.8,5.9a5.58,5.58,0,0,0,5.1-2.7h.2v2h3.9V55.5C250.9,51,247.3,48.3,242.8,48.3Zm-.5,14.8c-1.2,0-3.1-.6-3.1-2.3,0-2,2.3-2.9,4.3-2.9a8.48,8.48,0,0,1,3.7.8A5.17,5.17,0,0,1,242.3,63.1Zm22.8-14.2-4.5,11.7h-.2l-4.7-11.7h-4.3l7.2,16.2-4.1,9h4.1l11.1-25.4h-4.5v.2ZM228.8,66.1h4.1V39.3h-4.1Z" fill="none"/></clipPath><clipPath id="b"><polygon points="102.7 29.7 110.9 29.7 110.9 27.7 105 27.7 105 24 110.3 24 110.3 21.9 105 21.9 105 18 110.9 18 110.9 16 102.7 16 102.7 29.7" fill="none"/></clipPath><clipPath id="c"><path d="M100.7,22.1H93.9v2h4.7a3.78,3.78,0,0,1-1,2.3,4.46,4.46,0,0,1-3.5,1.4,4.91,4.91,0,0,1-3.5-1.4,5,5,0,0,1-1.4-3.7A5,5,0,0,1,90.6,19a4.46,4.46,0,0,1,3.5-1.4A4.2,4.2,0,0,1,97.6,19l.2.2,1.4-1.4-.2-.2A7.83,7.83,0,0,0,97,16a6.53,6.53,0,0,0-2.9-.6,6.42,6.42,0,0,0-4.9,2,6.86,6.86,0,0,0-2,5.1,6.86,6.86,0,0,0,2,5.1,6.72,6.72,0,0,0,4.9,2,6.14,6.14,0,0,0,4.9-2,6.86,6.86,0,0,0,1.6-4.5c.3,0,.3-.4.1-1Z" fill="none"/></clipPath></defs><title>Asset 1</title><path d="M0,8.6A8.66,8.66,0,0,1,8.6,0H277.3a8.66,8.66,0,0,1,8.6,8.6V77.2a8.66,8.66,0,0,1-8.6,8.6H8.6A8.66,8.66,0,0,1,0,77.2Z"/><g clip-path="url(#a)"><rect x="80" y="31.1" width="196.5" height="50.8" fill="#fff"/></g><g clip-path="url(#b)"><rect x="95.6" y="8.8" width="22.3" height="28" fill="#fff"/></g><g clip-path="url(#c)"><rect x="80" y="8.6" width="28" height="28.7" fill="#fff"/></g><path d="M20.2,18.6a4.24,4.24,0,0,0-1,3.1V69.2a5.22,5.22,0,0,0,1,3.1l.2.2L47,45.9v-.8L20.2,18.6Z" fill="#01c5ff"/><path d="M47.1,45.1v.8l8.8,8.8.2-.2,10.4-5.9c3.1-1.6,3.1-4.5,0-6.1L56.1,36.6l-.2-.2Z" fill="#fc0"/><path d="M20.2,72.3c1,1,2.7,1.2,4.5.2L56.1,54.7l-9-9Z" fill="#fe3944"/><path d="M20.2,18.6,47,45.4l9-9L24.7,18.6a5.66,5.66,0,0,0-2.5-.8,4.22,4.22,0,0,0-2,.8" fill="#00f076"/></svg>