<svg xmlns="http://www.w3.org/2000/svg" viewBox="0 0 531.4 51.9"><title>Asset 10</title><path d="M40.6,5l.6.6c.2.2.2.4.2.8s0,.6-.2.8l-1.8,3.1a1.73,1.73,0,0,1-1.2.6.73.73,0,0,1-.6-.2c-.2-.2-.4-.2-.6-.4a20.83,20.83,0,0,0-5.1-2.7,26.09,26.09,0,0,0-5.5-.8,21.14,21.14,0,0,0-8,1.6,18.57,18.57,0,0,0-6.3,4.3,21.16,21.16,0,0,0-4.3,6.1,18.08,18.08,0,0,0-1.4,7.4A19.14,19.14,0,0,0,8,33.8a19.44,19.44,0,0,0,4.1,5.9,17.71,17.71,0,0,0,6.1,3.9A18.08,18.08,0,0,0,25.6,45a14.64,14.64,0,0,0,2.9-.2c1-.2,1.8-.4,2.9-.6,1-.4,2-.8,3.1-1.2s2-1.2,3.3-1.8a3.38,3.38,0,0,1,1-.4,1,1,0,0,1,1,.8l1.8,3.3a1.2,1.2,0,0,1,.2.8,1.1,1.1,0,0,1-.8,1.2,35.67,35.67,0,0,1-7,3.7,22,22,0,0,1-8.2,1.2,26.85,26.85,0,0,1-7-.8,17.76,17.76,0,0,1-6.1-2.7,20,20,0,0,1-5.1-4.1,50.81,50.81,0,0,1-4.1-5.1A34.06,34.06,0,0,1,.8,33,26.85,26.85,0,0,1,0,26a24.41,24.41,0,0,1,.8-6.8,17.76,17.76,0,0,1,2.7-6.1A25.17,25.17,0,0,1,7.6,7.8a32.74,32.74,0,0,1,5.1-4.1A34.06,34.06,0,0,1,18.8,1a26.9,26.9,0,0,1,7-1,25.79,25.79,0,0,1,8,1.2A31.2,31.2,0,0,1,40.6,5Z" fill="#e66b5b"/><path d="M49.6,2.3c0-1,.4-1.6,1.4-1.6H70.4a16.44,16.44,0,0,1,6.3,1.2,16,16,0,0,1,5.1,3.5,15.44,15.44,0,0,1,3.5,5.1,16.55,16.55,0,0,1,1.2,6.1,16.31,16.31,0,0,1-.6,4.5,15,15,0,0,1-1.8,4.1,12.76,12.76,0,0,1-2.9,3.3A14.14,14.14,0,0,1,77.5,31l9,18.2v.6c0,.6-.4,1-1.2,1H81.2a1.88,1.88,0,0,1-1.6-1.2l-8.2-17H56.1V49.4c0,1-.6,1.4-1.6,1.4H51c-1,0-1.4-.4-1.4-1.4V2.3ZM80.1,16.8a6.94,6.94,0,0,0-.8-3.5,8.3,8.3,0,0,0-2-3.1,7.57,7.57,0,0,0-3.1-2,8.25,8.25,0,0,0-3.7-.8H56.2v19H70.7a7.71,7.71,0,0,0,3.7-.8c1-.6,2-1.2,3.1-2a10.37,10.37,0,0,0,2-3.1A7.81,7.81,0,0,0,80.1,16.8Z" fill="#e66b5b"/><path d="M120.3,0a24.41,24.41,0,0,1,6.8.8,17.76,17.76,0,0,1,6.1,2.7,25.48,25.48,0,0,1,5.1,4.1,37.2,37.2,0,0,1,4.1,5.3,41.82,41.82,0,0,1,2.7,6.1,26.9,26.9,0,0,1,1,7,24.41,24.41,0,0,1-.8,6.8,17.76,17.76,0,0,1-2.7,6.1,20,20,0,0,1-4.1,5.1,50.82,50.82,0,0,1-5.1,4.1,24.07,24.07,0,0,1-6.1,2.7,31,31,0,0,1-14,0,17.76,17.76,0,0,1-6.1-2.7,20,20,0,0,1-5.1-4.1A50.81,50.81,0,0,1,98,38.9a34.06,34.06,0,0,1-2.7-6.1,26.85,26.85,0,0,1-.8-7,24.41,24.41,0,0,1,.8-6.8A17.76,17.76,0,0,1,98,12.9a25.17,25.17,0,0,1,4.1-5.3,32.74,32.74,0,0,1,5.1-4.1A34.06,34.06,0,0,1,113.3.8,39.45,39.45,0,0,1,120.3,0ZM101,25.8a21,21,0,0,0,.6,5.1,17.65,17.65,0,0,0,1.8,4.5,16.13,16.13,0,0,0,3.1,3.9,19,19,0,0,0,3.9,3.1,17.65,17.65,0,0,0,4.5,1.8,22,22,0,0,0,10.2,0,15.14,15.14,0,0,0,4.5-1.8,16.13,16.13,0,0,0,3.9-3.1,19,19,0,0,0,3.1-3.9,17.65,17.65,0,0,0,1.8-4.5,21,21,0,0,0,.6-5.1,19.71,19.71,0,0,0-1.4-7.6,23.32,23.32,0,0,0-4.1-6.1,18.53,18.53,0,0,0-13.7-5.5,21,21,0,0,0-5.1.6A17.65,17.65,0,0,0,110.2,9a16.13,16.13,0,0,0-3.9,3.1,19,19,0,0,0-3.1,3.9,17.65,17.65,0,0,0-1.8,4.5A49.09,49.09,0,0,0,101,25.8Z" fill="#e66b5b"/><path d="M190.3,1.5a1.33,1.33,0,0,1,1-.8h4.3a1.69,1.69,0,0,1,1.2.4c.2.2.2.4.2.8v.4l-7.8,18.6L197.4,41,213.2,1.9A1.75,1.75,0,0,1,215,.7h3.5a1.69,1.69,0,0,1,1.2.4,1,1,0,0,1,.4.8v.2L200.4,49.4v.2c0,.2-.2.2-.2.4s-.4.4-.6.4c-.2.2-.4.2-.8.2h-2.3a1.69,1.69,0,0,1-1.2-.4,1.52,1.52,0,0,1-.4-.8l-9-20.5-8.6,20.7c-.2.4-.4.6-.6,1a1.53,1.53,0,0,1-1,.4h-2.5a1.53,1.53,0,0,1-1-.4c-.2-.2-.4-.6-.6-.8L151.9,2.5V2.1c0-.6.4-1,1.2-1h3.7c.4,0,.6.2,1,.4a1.1,1.1,0,0,1,.6,1l15.8,38.9Z" fill="#e66b5b"/><path d="M227.3,2.3A1.47,1.47,0,0,1,228.9.7h15.8a26.85,26.85,0,0,1,7,.8A22.31,22.31,0,0,1,257.8,4a31.36,31.36,0,0,1,5.1,3.9,24.61,24.61,0,0,1,3.9,5.1,38.7,38.7,0,0,1,2.5,5.9,25.35,25.35,0,0,1,.8,6.8,26.34,26.34,0,0,1-.8,6.8,25.52,25.52,0,0,1-2.5,5.9,38.26,38.26,0,0,1-3.9,5.1,24.61,24.61,0,0,1-5.1,3.9,33.8,33.8,0,0,1-6.1,2.5,26.33,26.33,0,0,1-6.8.8h-16a1.5,1.5,0,0,1-1-.2c-.4-.2-.4-.6-.4-1.2V2.4h-.2Zm17.2,42.2a19,19,0,0,0,7.6-1.4A19.44,19.44,0,0,0,258,39a16.89,16.89,0,0,0,3.9-5.9,18.08,18.08,0,0,0,1.4-7.4,19,19,0,0,0-1.4-7.6,15.73,15.73,0,0,0-4.1-5.7,16.41,16.41,0,0,0-5.9-3.7,22.09,22.09,0,0,0-7.4-1.2H233.7V44.8h10.8Z" fill="#e66b5b"/><path d="M279.5,2.3A1.47,1.47,0,0,1,281.1.7h16.8A14.76,14.76,0,0,1,304,1.9a15.22,15.22,0,0,1,4.9,3.5,16.27,16.27,0,0,1,3.3,4.9,15.1,15.1,0,0,1,0,11.8,14.62,14.62,0,0,1-3.3,4.9,16.91,16.91,0,0,1-4.9,3.5,15.09,15.09,0,0,1-6.1,1.2H285.8V49.1c0,1-.4,1.4-1.4,1.4h-3.5c-1,0-1.4-.4-1.4-1.4V2.3ZM307,16.4a10.73,10.73,0,0,0-.6-3.5,10,10,0,0,0-1.8-2.9,12.4,12.4,0,0,0-2.9-2,10,10,0,0,0-3.5-.8H286.3V25.4h11.9a6.94,6.94,0,0,0,3.5-.8,10.78,10.78,0,0,0,2.9-2,10,10,0,0,0,2-2.9A16.56,16.56,0,0,0,307,16.4Z" fill="#e66b5b"/><path d="M328.7,30.1a19.21,19.21,0,0,0,1,5.9,13.09,13.09,0,0,0,2.7,4.9,12.53,12.53,0,0,0,4.5,3.3,13.51,13.51,0,0,0,5.9,1.2,15.07,15.07,0,0,0,6.3-1.2,11.46,11.46,0,0,0,4.5-3.3,15.48,15.48,0,0,0,2.7-4.9,19.13,19.13,0,0,0,.8-5.9V2.3a1.53,1.53,0,0,1,.4-1,1.69,1.69,0,0,1,1.2-.4H362a2.84,2.84,0,0,1,1.2.4,1.1,1.1,0,0,1,.6,1V31.2a23.25,23.25,0,0,1-1.6,8.4,21.48,21.48,0,0,1-4.5,6.6,18.42,18.42,0,0,1-6.6,4.3,22.09,22.09,0,0,1-16-.2,21.48,21.48,0,0,1-6.6-4.5,24.05,24.05,0,0,1-4.5-6.6,21.14,21.14,0,0,1-1.6-8V2.3c0-.4.2-.6.4-1s.6-.4,1-.4h3.7c.4,0,.6.2,1,.4a1.1,1.1,0,0,1,.6,1V30.1h-.4Z" fill="#e66b5b"/><path d="M403.8,44.5a1.53,1.53,0,0,1,1,.4,1.69,1.69,0,0,1,.4,1.2v3.5a1.37,1.37,0,0,1-1.4,1.4H375.1c-1,0-1.4-.4-1.4-1.4V2.3a1.53,1.53,0,0,1,.4-1,1.69,1.69,0,0,1,1.2-.4h3.5a1.53,1.53,0,0,1,1,.4,1.53,1.53,0,0,1,.4,1V44.5h23.6Z" fill="#e66b5b"/><path d="M442.7,44.5a1.53,1.53,0,0,1,1,.4,1.69,1.69,0,0,1,.4,1.2v3.5a1.37,1.37,0,0,1-1.4,1.4H414c-1,0-1.4-.4-1.4-1.4V2.3a1.53,1.53,0,0,1,.4-1,1.69,1.69,0,0,1,1.2-.4h3.5a1.53,1.53,0,0,1,1,.4,1.53,1.53,0,0,1,.4,1V44.5h23.6Z" fill="#e66b5b"/><path d="M485.1.9a1.47,1.47,0,0,1,1.6,1.6V5.8a1.53,1.53,0,0,1-.4,1c-.2.4-.6.4-1.2.4H457.8V21.1h21.5a1.53,1.53,0,0,1,1,.4,1.69,1.69,0,0,1,.4,1.2v3.5a1.53,1.53,0,0,1-.4,1c-.2.4-.6.4-1,.4H457.8V44.2h27.4a1.47,1.47,0,0,1,1.6,1.6v3.5c0,1-.4,1.4-1.4,1.4H452.9c-1,0-1.4-.4-1.4-1.4V2.2c0-1,.4-1.6,1.4-1.6H485V.9Z" fill="#e66b5b"/><path d="M494.5,2.3c0-1,.4-1.6,1.4-1.6h19.4a16.44,16.44,0,0,1,6.3,1.2,14.08,14.08,0,0,1,5.1,3.5,15.44,15.44,0,0,1,3.5,5.1,16.55,16.55,0,0,1,1.2,6.1,16.32,16.32,0,0,1-.6,4.5,15,15,0,0,1-1.8,4.1,12.76,12.76,0,0,1-2.9,3.3,18.5,18.5,0,0,1-3.7,2.5l9,18.2v.6c0,.6-.4,1-1.2,1h-4.1a1.88,1.88,0,0,1-1.6-1.2l-8.2-17H501V49.4c0,1-.6,1.4-1.6,1.4h-3.5c-1,0-1.4-.4-1.4-1.4V2.3ZM525,16.8a6.94,6.94,0,0,0-.8-3.5,8.3,8.3,0,0,0-2-3.1,7.57,7.57,0,0,0-3.1-2,8.25,8.25,0,0,0-3.7-.8H501.1v19h14.5a7.71,7.71,0,0,0,3.7-.8,20.45,20.45,0,0,0,3.1-2,10.37,10.37,0,0,0,2-3.1A11.48,11.48,0,0,0,525,16.8Z" fill="#e66b5b"/></svg>