<?xml version="1.0" encoding="utf-8"?>
<!-- Generator: Adobe Illustrator 21.0.2, SVG Export Plug-In . SVG Version: 6.00 Build 0)  -->
<svg version="1.1" id="Layer_1" xmlns="http://www.w3.org/2000/svg" xmlns:xlink="http://www.w3.org/1999/xlink" x="0px" y="0px"
	 viewBox="0 0 453 198" style="enable-background:new 0 0 453 198;" xml:space="preserve">
<style type="text/css">
	.st0{clip-path:url(#SVGID_2_);}
	.st1{clip-path:url(#SVGID_4_);fill:#FFFFFF;}
	.st2{clip-path:url(#SVGID_6_);fill:#FFFFFF;}
	.st3{clip-path:url(#SVGID_8_);fill:#FFFFFF;}
	.st4{clip-path:url(#SVGID_10_);fill:#FFFFFF;}
	.st5{clip-path:url(#SVGID_12_);fill:#FFFFFF;}
	.st6{clip-path:url(#SVGID_14_);fill:#FFFFFF;}
	.st7{clip-path:url(#SVGID_16_);fill:#FFFFFF;}
	.st8{clip-path:url(#SVGID_18_);fill:#FFFFFF;}
	.st9{opacity:0;clip-path:url(#SVGID_20_);}
	.st10{opacity:0;}
	.st11{clip-path:url(#SVGID_22_);}
	.st12{opacity:0;clip-path:url(#SVGID_26_);}
	.st13{clip-path:url(#SVGID_28_);}
	.st14{opacity:0;clip-path:url(#SVGID_32_);}
	.st15{clip-path:url(#SVGID_34_);}
	.st16{clip-path:url(#SVGID_40_);}
	.st17{clip-path:url(#SVGID_42_);fill:#FFFFFF;}
	.st18{clip-path:url(#SVGID_44_);fill:#FFFFFF;}
	.st19{clip-path:url(#SVGID_46_);fill:#FFFFFF;}
	.st20{clip-path:url(#SVGID_48_);fill:#FFFFFF;}
	.st21{clip-path:url(#SVGID_50_);fill:#FFFFFF;}
	.st22{clip-path:url(#SVGID_52_);fill:#FFFFFF;}
	.st23{clip-path:url(#SVGID_54_);fill:#FFFFFF;}
	.st24{clip-path:url(#SVGID_56_);fill:#FFFFFF;}
	.st25{clip-path:url(#SVGID_58_);fill:#FFFFFF;}
	.st26{clip-path:url(#SVGID_60_);fill:#FFFFFF;}
	.st27{clip-path:url(#SVGID_62_);fill:#FFFFFF;}
	.st28{clip-path:url(#SVGID_64_);fill:#FFFFFF;}
	.st29{clip-path:url(#SVGID_66_);fill:#FFFFFF;}
	.st30{clip-path:url(#SVGID_68_);fill:#FFFFFF;}
	.st31{clip-path:url(#SVGID_70_);fill:#FFFFFF;}
	.st32{clip-path:url(#SVGID_72_);fill:#FFFFFF;}
	.st33{clip-path:url(#SVGID_74_);fill:#FFFFFF;}
	.st34{clip-path:url(#SVGID_76_);fill:#FFFFFF;}
	.st35{clip-path:url(#SVGID_78_);fill:#FFFFFF;}
	.st36{clip-path:url(#SVGID_80_);fill:#FFFFFF;}
	.st37{clip-path:url(#SVGID_82_);fill:#FFFFFF;}
	.st38{clip-path:url(#SVGID_84_);fill:#FFFFFF;}
	.st39{clip-path:url(#SVGID_86_);fill:#FFFFFF;}
	.st40{fill:#0071BC;}
	.st41{fill:#FFFFFF;}
	.st42{fill:#2F97ED;}
	.st43{fill:#F34A38;}
	.st44{opacity:0.5;fill:#FFFFFF;}
</style>
<g>
	<g>
		<defs>
			<path id="SVGID_1_" d="M12,16c0-3.3,2.7-6,6-6h188c3.3,0,6,2.7,6,6v48c0,3.3-2.7,6-6,6H18c-3.3,0-6-2.7-6-6V16z"/>
		</defs>
		<clipPath id="SVGID_2_">
			<use xlink:href="#SVGID_1_"  style="overflow:visible;"/>
		</clipPath>
		<rect x="7" y="5" class="st0" width="210" height="70"/>
	</g>
	<g>
		<defs>
			<path id="SVGID_3_" d="M113.8,43.9c-3.5,0-6.4,2.7-6.4,6.4c0,3.7,2.9,6.4,6.4,6.4c3.5,0,6.4-2.7,6.4-6.4
				C120.2,46.6,117.3,43.9,113.8,43.9z M113.8,54.1c-1.9,0-3.6-1.6-3.6-3.9c0-2.3,1.7-3.9,3.6-3.9c1.9,0,3.6,1.6,3.6,3.9
				C117.4,52.5,115.7,54.1,113.8,54.1z M99.7,43.9c-3.5,0-6.4,2.7-6.4,6.4c0,3.7,2.9,6.4,6.4,6.4s6.4-2.7,6.4-6.4
				C106.2,46.6,103.3,43.9,99.7,43.9z M99.7,54.1c-1.9,0-3.6-1.6-3.6-3.9c0-2.3,1.7-3.9,3.6-3.9c1.9,0,3.6,1.6,3.6,3.9
				C103.4,52.5,101.7,54.1,99.7,54.1z M83.1,45.8v2.7h6.5c-0.2,1.5-0.7,2.6-1.5,3.4c-0.9,0.9-2.4,2-5,2c-4,0-7.1-3.2-7.1-7.2
				c0-4,3.1-7.2,7.1-7.2c2.2,0,3.7,0.8,4.9,1.9l1.9-1.9c-1.6-1.5-3.8-2.7-6.8-2.7c-5.5,0-10.1,4.4-10.1,9.9s4.6,9.9,10.1,9.9
				c3,0,5.2-1,6.9-2.8c1.8-1.8,2.3-4.3,2.3-6.3c0-0.6,0-1.2-0.1-1.7H83.1z M151.2,47.9c-0.5-1.4-2.2-4.1-5.5-4.1c-3.3,0-6,2.6-6,6.4
				c0,3.6,2.7,6.4,6.3,6.4c2.9,0,4.6-1.8,5.3-2.8l-2.2-1.5c-0.7,1.1-1.7,1.8-3.1,1.8c-1.4,0-2.4-0.7-3.1-1.9l8.6-3.5L151.2,47.9z
				 M142.5,50.1c-0.1-2.5,1.9-3.7,3.3-3.7c1.1,0,2.1,0.6,2.4,1.4L142.5,50.1z M135.5,56.2h2.8V37.5h-2.8V56.2z M130.9,45.3
				L130.9,45.3c-0.7-0.7-1.9-1.4-3.5-1.4c-3.2,0-6.1,2.8-6.1,6.4c0,3.6,2.9,6.4,6.1,6.4c1.5,0,2.7-0.7,3.4-1.5h0.1v0.9
				c0,2.4-1.3,3.7-3.4,3.7c-1.7,0-2.8-1.2-3.2-2.3l-2.4,1c0.7,1.7,2.6,3.8,5.7,3.8c3.3,0,6.1-1.9,6.1-6.6V44.3h-2.7V45.3z
				 M127.7,54.1c-1.9,0-3.6-1.6-3.6-3.8c0-2.2,1.6-3.9,3.6-3.9c1.9,0,3.4,1.6,3.4,3.9C131.1,52.5,129.6,54.1,127.7,54.1z
				 M164.4,37.5h-6.7v18.8h2.8v-7.1h3.9c3.1,0,6.2-2.2,6.2-5.8C170.6,39.7,167.5,37.5,164.4,37.5z M164.5,46.5h-4v-6.4h4
				c2.1,0,3.3,1.7,3.3,3.2C167.7,44.8,166.6,46.5,164.5,46.5z M181.8,43.8c-2,0-4.1,0.9-5,2.9l2.5,1c0.5-1,1.5-1.4,2.6-1.4
				c1.5,0,2.9,0.9,3,2.4V49c-0.5-0.3-1.6-0.7-2.9-0.7c-2.7,0-5.4,1.5-5.4,4.2c0,2.5,2.2,4.1,4.7,4.1c1.9,0,2.9-0.8,3.6-1.8h0.1v1.4
				h2.7V49C187.5,45.7,185,43.8,181.8,43.8z M181.5,54.1c-0.9,0-2.2-0.5-2.2-1.6c0-1.4,1.6-2,3-2c1.2,0,1.8,0.3,2.6,0.6
				C184.6,52.9,183.1,54.1,181.5,54.1z M197.4,44.3l-3.2,8.1h-0.1l-3.3-8.1h-3l5,11.4l-2.9,6.3h2.9l7.7-17.7H197.4z M172.1,56.2h2.8
				V37.5h-2.8V56.2z"/>
		</defs>
		<clipPath id="SVGID_4_">
			<use xlink:href="#SVGID_3_"  style="overflow:visible;"/>
		</clipPath>
		<rect x="68" y="31.8" class="st1" width="137.5" height="35.5"/>
	</g>
	<g>
		<defs>
			<polygon id="SVGID_5_" points="131.1,21.2 131.1,26.8 131.1,28.1 126.8,21.2 125.2,21.2 125.2,30.8 126.7,30.8 126.7,24.9 
				126.6,23.6 131.1,30.8 132.5,30.8 132.5,21.2 			"/>
		</defs>
		<clipPath id="SVGID_6_">
			<use xlink:href="#SVGID_5_"  style="overflow:visible;"/>
		</clipPath>
		<rect x="120.2" y="16.2" class="st2" width="17.4" height="19.6"/>
	</g>
	<g>
		<defs>
			<path id="SVGID_7_" d="M119,21c-1.4,0-2.5,0.5-3.5,1.5c-0.9,1-1.4,2.2-1.4,3.5s0.5,2.6,1.4,3.5c0.9,1,2.1,1.5,3.5,1.5
				c1.4,0,2.5-0.5,3.5-1.5c0.9-1,1.4-2.2,1.4-3.5c0-1.4-0.5-2.6-1.4-3.5C121.5,21.5,120.3,21,119,21 M122.3,26c0,1-0.3,1.9-1,2.6
				c-0.6,0.7-1.4,1-2.4,1c-0.9,0-1.7-0.3-2.4-1c-0.6-0.7-1-1.5-1-2.6s0.3-1.9,1-2.6c0.6-0.7,1.4-1,2.4-1c0.9,0,1.7,0.3,2.4,1
				C122,24.1,122.3,25,122.3,26"/>
		</defs>
		<clipPath id="SVGID_8_">
			<use xlink:href="#SVGID_7_"  style="overflow:visible;"/>
		</clipPath>
		<rect x="109.1" y="16" class="st3" width="19.7" height="20"/>
	</g>
	<g>
		<defs>
			<polygon id="SVGID_9_" points="104,22.7 106.5,22.7 106.5,30.8 108,30.8 108,22.7 110.6,22.7 110.6,21.2 104,21.2 			"/>
		</defs>
		<clipPath id="SVGID_10_">
			<use xlink:href="#SVGID_9_"  style="overflow:visible;"/>
		</clipPath>
		<rect x="99" y="16.2" class="st4" width="16.6" height="19.6"/>
	</g>
	<g>
		<defs>
			<rect id="SVGID_11_" x="101.3" y="21.2" width="1.5" height="9.6"/>
		</defs>
		<clipPath id="SVGID_12_">
			<use xlink:href="#SVGID_11_"  style="overflow:visible;"/>
		</clipPath>
		<rect x="96.3" y="16.2" class="st5" width="11.5" height="19.6"/>
	</g>
	<g>
		<defs>
			<polygon id="SVGID_13_" points="90.5,22.7 93.1,22.7 93.1,30.8 94.5,30.8 94.5,22.7 97.1,22.7 97.1,21.2 90.5,21.2 			"/>
		</defs>
		<clipPath id="SVGID_14_">
			<use xlink:href="#SVGID_13_"  style="overflow:visible;"/>
		</clipPath>
		<rect x="85.5" y="16.2" class="st6" width="16.6" height="19.6"/>
	</g>
	<g>
		<defs>
			<polygon id="SVGID_15_" points="83.9,30.8 89.6,30.8 89.6,29.3 85.4,29.3 85.4,26.7 89.2,26.7 89.2,25.3 85.4,25.3 85.4,22.7 
				89.6,22.7 89.6,21.2 83.9,21.2 			"/>
		</defs>
		<clipPath id="SVGID_16_">
			<use xlink:href="#SVGID_15_"  style="overflow:visible;"/>
		</clipPath>
		<rect x="78.9" y="16.2" class="st7" width="15.6" height="19.6"/>
	</g>
	<g>
		<defs>
			<path id="SVGID_17_" d="M82.5,25.5h-4.7v1.4h3.3c-0.1,0.7-0.3,1.2-0.7,1.6c-0.6,0.7-1.5,1-2.4,1c-0.9,0-1.7-0.3-2.4-1
				c-0.7-0.7-1-1.5-1-2.6c0-1,0.3-1.9,1-2.6c0.7-0.7,1.5-1,2.4-1c1,0,1.8,0.3,2.4,1l0.1,0.1l1-1l-0.1-0.1c-0.4-0.4-0.9-0.8-1.5-1.1
				c-0.6-0.3-1.3-0.4-1.9-0.4c-1.4,0-2.5,0.5-3.5,1.4c-0.9,1-1.4,2.2-1.4,3.6c0,1.4,0.5,2.6,1.4,3.6c0.9,1,2.1,1.4,3.5,1.4
				c1.4,0,2.6-0.5,3.5-1.4c0.8-0.8,1.2-1.9,1.2-3.2c0-0.2,0-0.5-0.1-0.7L82.5,25.5z"/>
		</defs>
		<clipPath id="SVGID_18_">
			<use xlink:href="#SVGID_17_"  style="overflow:visible;"/>
		</clipPath>
		<rect x="68" y="16" class="st8" width="19.6" height="20"/>
	</g>
	<g>
		<defs>
			<path id="SVGID_19_" d="M26.2,23.1c-0.4,0.5-0.7,1.2-0.7,2.1v33.2c0,0.9,0.3,1.6,0.7,2.1l0.1,0.1L45,42v-0.2v-0.2L26.3,23
				L26.2,23.1z"/>
		</defs>
		<use xlink:href="#SVGID_19_"  style="overflow:visible;fill-rule:evenodd;clip-rule:evenodd;fill:#01C9FF;"/>
		<clipPath id="SVGID_20_">
			<use xlink:href="#SVGID_19_"  style="overflow:visible;"/>
		</clipPath>
		<g class="st9">
			<g class="st10">
				<g>
					<defs>
						<rect id="SVGID_21_" x="25.5" y="23" width="19.4" height="37.6"/>
					</defs>
					<clipPath id="SVGID_22_">
						<use xlink:href="#SVGID_21_"  style="overflow:visible;"/>
					</clipPath>
					<g class="st11">
						<defs>
							<rect id="SVGID_23_" x="25.5" y="23" width="19.4" height="37.6"/>
						</defs>
						<clipPath id="SVGID_24_">
							<use xlink:href="#SVGID_23_"  style="overflow:visible;"/>
						</clipPath>
						<g style="clip-path:url(#SVGID_24_);">
							
								<image style="overflow:visible;" width="83" height="159" xlink:href="793DEC728F39EF0C.jpg"  transform="matrix(0.24 0 0 0.24 25.44 22.8)">
							</image>
						</g>
					</g>
				</g>
			</g>
		</g>
	</g>
	<g>
		<defs>
			<path id="SVGID_25_" d="M45,41.6v0.2V42l6.2,6.2l0.1-0.1l7.4-4.2c2.1-1.2,2.1-3.1,0-4.3l-7.4-4.2l-0.1-0.1L45,41.6z"/>
		</defs>
		<use xlink:href="#SVGID_25_"  style="overflow:visible;fill-rule:evenodd;clip-rule:evenodd;fill:#FFC502;"/>
		<clipPath id="SVGID_26_">
			<use xlink:href="#SVGID_25_"  style="overflow:visible;"/>
		</clipPath>
		<g class="st12">
			<g class="st10">
				<g>
					<defs>
						<rect id="SVGID_27_" x="45" y="35.4" width="15.8" height="12.8"/>
					</defs>
					<clipPath id="SVGID_28_">
						<use xlink:href="#SVGID_27_"  style="overflow:visible;"/>
					</clipPath>
					<g class="st13">
						<defs>
							<rect id="SVGID_29_" x="45" y="35.4" width="15.8" height="12.8"/>
						</defs>
						<clipPath id="SVGID_30_">
							<use xlink:href="#SVGID_29_"  style="overflow:visible;"/>
						</clipPath>
						<g style="clip-path:url(#SVGID_30_);">
							
								<image style="overflow:visible;" width="67" height="55" xlink:href="793DEC728F39EF0B.jpg"  transform="matrix(0.24 0 0 0.24 44.88 35.28)">
							</image>
						</g>
					</g>
				</g>
			</g>
		</g>
	</g>
	<g>
		<defs>
			<path id="SVGID_31_" d="M26.2,60.5c0.7,0.7,1.8,0.8,3.1,0.1l22-12.5L45,41.8L26.2,60.5z"/>
		</defs>
		<use xlink:href="#SVGID_31_"  style="overflow:visible;fill-rule:evenodd;clip-rule:evenodd;fill:#F83547;"/>
		<clipPath id="SVGID_32_">
			<use xlink:href="#SVGID_31_"  style="overflow:visible;"/>
		</clipPath>
		<g class="st14">
			<g class="st10">
				<g>
					<defs>
						<rect id="SVGID_33_" x="26.2" y="41.8" width="25.1" height="19.5"/>
					</defs>
					<clipPath id="SVGID_34_">
						<use xlink:href="#SVGID_33_"  style="overflow:visible;"/>
					</clipPath>
					<g class="st15">
						<defs>
							<rect id="SVGID_35_" x="26.2" y="41.8" width="25.1" height="19.5"/>
						</defs>
						<clipPath id="SVGID_36_">
							<use xlink:href="#SVGID_35_"  style="overflow:visible;"/>
						</clipPath>
						<g style="clip-path:url(#SVGID_36_);">
							
								<image style="overflow:visible;" width="105" height="82" xlink:href="793DEC728F39EF16.jpg"  transform="matrix(0.24 0 0 0.24 26.16 41.76)">
							</image>
						</g>
					</g>
				</g>
			</g>
		</g>
	</g>
	<g>
		<defs>
			<path id="SVGID_37_" d="M26.2,23.1L45,41.8l6.4-6.3L29.4,23c-0.6-0.3-1.2-0.5-1.7-0.5C27.1,22.5,26.6,22.7,26.2,23.1"/>
		</defs>
		<use xlink:href="#SVGID_37_"  style="overflow:visible;fill-rule:evenodd;clip-rule:evenodd;fill:#00F076;"/>
		<clipPath id="SVGID_38_">
			<use xlink:href="#SVGID_37_"  style="overflow:visible;"/>
		</clipPath>
	</g>
</g>
<g>
	<g>
		<defs>
			<path id="SVGID_39_" d="M235.2,16c0-3.3,2.7-6,6-6h188c3.3,0,6,2.7,6,6v48c0,3.3-2.7,6-6,6h-188c-3.3,0-6-2.7-6-6V16z"/>
		</defs>
		<clipPath id="SVGID_40_">
			<use xlink:href="#SVGID_39_"  style="overflow:visible;"/>
		</clipPath>
		<rect x="230.2" y="5" class="st16" width="210" height="70"/>
	</g>
	<g>
		<defs>
			<path id="SVGID_41_" d="M279.5,39.7c0-4.8,4-7.2,4.2-7.3c-2.3-3.3-5.8-3.8-7-3.8c-3-0.3-5.8,1.8-7.3,1.8c-1.5,0-3.9-1.7-6.4-1.7
				c-3.2,0-6.2,1.9-7.9,4.8c-3.4,5.9-0.9,14.5,2.4,19.3c1.6,2.3,3.5,4.9,6,4.8c2.4-0.1,3.4-1.6,6.3-1.6c2.9,0,3.8,1.6,6.3,1.5
				c2.6,0,4.3-2.3,5.8-4.7c1.9-2.7,2.6-5.3,2.7-5.4C284.6,47.4,279.6,45.5,279.5,39.7z"/>
		</defs>
		<clipPath id="SVGID_42_">
			<use xlink:href="#SVGID_41_"  style="overflow:visible;"/>
		</clipPath>
		<rect x="248.5" y="23.6" class="st17" width="41.2" height="39"/>
	</g>
	<g>
		<defs>
			<path id="SVGID_43_" d="M274.7,25.5c1.3-1.6,2.2-3.9,2-6.1c-1.9,0.1-4.3,1.3-5.7,2.9c-1.2,1.4-2.3,3.7-2,5.9
				C271.2,28.3,273.3,27.1,274.7,25.5z"/>
		</defs>
		<clipPath id="SVGID_44_">
			<use xlink:href="#SVGID_43_"  style="overflow:visible;"/>
		</clipPath>
		<rect x="264" y="14.3" class="st18" width="17.8" height="18.8"/>
	</g>
	<g>
		<defs>
			<path id="SVGID_45_" d="M414.9,48.5c0-0.9-0.2-1.8-0.6-2.5c-0.6-0.9-1.4-1.3-2.6-1.3c-1,0-1.9,0.4-2.6,1.3
				c-0.5,0.7-0.9,1.5-0.9,2.5L414.9,48.5L414.9,48.5z M417.9,49.4c0,0.6,0,1.1-0.1,1.5h-9.6c0,1.4,0.5,2.5,1.4,3.3
				c0.8,0.7,1.9,1,3.1,1c1.4,0,2.7-0.2,3.9-0.7l0.5,2.2c-1.4,0.6-3,0.9-4.8,0.9c-2.2,0-4-0.7-5.3-2c-1.3-1.3-1.9-3.1-1.9-5.3
				c0-2.2,0.6-4,1.8-5.4c1.2-1.5,2.9-2.3,5-2.3c2.1,0,3.7,0.8,4.7,2.3C417.5,46.1,417.9,47.6,417.9,49.4z"/>
		</defs>
		<clipPath id="SVGID_46_">
			<use xlink:href="#SVGID_45_"  style="overflow:visible;"/>
		</clipPath>
		<rect x="400.1" y="37.5" class="st19" width="22.8" height="25"/>
	</g>
	<g>
		<defs>
			<path id="SVGID_47_" d="M403.6,45.7c-0.3-0.1-0.7-0.1-1-0.1c-1.1,0-2,0.4-2.6,1.3c-0.5,0.8-0.8,1.7-0.8,2.8v7.6h-3.2l0-9.9
				c0-1.7,0-3.2-0.1-4.5h2.8l0.1,2.8h0.1c0.3-0.9,0.9-1.7,1.6-2.3c0.7-0.5,1.5-0.8,2.3-0.8c0.3,0,0.6,0,0.8,0.1V45.7z"/>
		</defs>
		<clipPath id="SVGID_48_">
			<use xlink:href="#SVGID_47_"  style="overflow:visible;"/>
		</clipPath>
		<rect x="390.9" y="37.6" class="st20" width="17.7" height="24.7"/>
	</g>
	<g>
		<defs>
			<path id="SVGID_49_" d="M389.8,50c0-1.3-0.3-2.5-0.9-3.4c-0.7-1.1-1.6-1.7-2.9-1.7c-1.3,0-2.3,0.6-2.9,1.7
				c-0.6,1-0.9,2.1-0.9,3.5c0,1.3,0.3,2.5,0.9,3.4c0.7,1.1,1.7,1.7,2.9,1.7c1.2,0,2.2-0.6,2.9-1.8C389.5,52.5,389.8,51.4,389.8,50z
				 M393.2,49.9c0,2.2-0.6,4-1.9,5.4c-1.3,1.5-3.1,2.2-5.3,2.2c-2.1,0-3.8-0.7-5.1-2.1c-1.3-1.4-1.9-3.2-1.9-5.3
				c0-2.2,0.6-4.1,1.9-5.5c1.3-1.4,3-2.1,5.2-2.1c2.1,0,3.8,0.7,5.1,2.1C392.5,46,393.2,47.8,393.2,49.9z"/>
		</defs>
		<clipPath id="SVGID_50_">
			<use xlink:href="#SVGID_49_"  style="overflow:visible;"/>
		</clipPath>
		<rect x="374" y="37.6" class="st21" width="24.1" height="25"/>
	</g>
	<g>
		<defs>
			<path id="SVGID_51_" d="M377.2,45.3h-3.5v7c0,1.8,0.6,2.7,1.9,2.7c0.6,0,1,0,1.4-0.1l0.1,2.4c-0.6,0.2-1.5,0.4-2.5,0.4
				c-1.3,0-2.3-0.4-3-1.2c-0.7-0.8-1.1-2.1-1.1-3.9v-7.3h-2.1v-2.4h2.1v-2.6l3.1-0.9v3.6h3.5V45.3z"/>
		</defs>
		<clipPath id="SVGID_52_">
			<use xlink:href="#SVGID_51_"  style="overflow:visible;"/>
		</clipPath>
		<rect x="363.4" y="34.3" class="st22" width="18.8" height="28.3"/>
	</g>
	<g>
		<defs>
			<path id="SVGID_53_" d="M366.6,51.7c0,1.7-0.6,3.1-1.8,4.1c-1.3,1.2-3.1,1.7-5.5,1.7c-2.2,0-3.9-0.4-5.2-1.2l0.7-2.7
				c1.4,0.8,3,1.3,4.6,1.3c1.2,0,2.1-0.3,2.8-0.8c0.7-0.5,1-1.3,1-2.2c0-0.8-0.3-1.5-0.8-2c-0.6-0.6-1.5-1.1-2.8-1.5
				c-3.5-1.3-5.3-3.2-5.3-5.7c0-1.6,0.6-3,1.8-4c1.2-1,2.9-1.6,4.9-1.6c1.8,0,3.3,0.3,4.5,0.9l-0.8,2.6c-1.1-0.6-2.4-0.9-3.8-0.9
				c-1.1,0-2,0.3-2.6,0.8c-0.5,0.5-0.8,1.1-0.8,1.8c0,0.8,0.3,1.4,0.9,2c0.5,0.5,1.5,1,2.9,1.5c1.7,0.7,3,1.5,3.8,2.4
				C366.2,49.1,366.6,50.3,366.6,51.7z"/>
		</defs>
		<clipPath id="SVGID_54_">
			<use xlink:href="#SVGID_53_"  style="overflow:visible;"/>
		</clipPath>
		<rect x="349.2" y="32" class="st23" width="22.4" height="30.6"/>
	</g>
	<g>
		<defs>
			<path id="SVGID_55_" d="M344.8,50c0-1.4-0.3-2.6-1-3.5c-0.7-0.9-1.6-1.4-2.8-1.4c-0.8,0-1.5,0.3-2.2,0.8
				c-0.6,0.5-1.1,1.2-1.3,2.1c-0.1,0.4-0.1,0.7-0.1,1v2.4c0,1,0.3,1.9,1,2.7c0.6,0.7,1.5,1.1,2.5,1.1c1.2,0,2.1-0.5,2.8-1.4
				C344.5,52.7,344.8,51.5,344.8,50z M348.1,49.9c0,2.4-0.7,4.4-2,5.8c-1.2,1.3-2.7,1.9-4.4,1.9c-1.9,0-3.3-0.7-4.1-2h-0.1v7.6h-3.2
				V47.6c0-1.5,0-3.1-0.1-4.7h2.8l0.2,2.3h0.1c1.1-1.7,2.7-2.6,4.9-2.6c1.7,0,3.1,0.7,4.3,2C347.5,45.9,348.1,47.7,348.1,49.9z"/>
		</defs>
		<clipPath id="SVGID_56_">
			<use xlink:href="#SVGID_55_"  style="overflow:visible;"/>
		</clipPath>
		<rect x="329.2" y="37.6" class="st24" width="23.9" height="30.6"/>
	</g>
	<g>
		<defs>
			<path id="SVGID_57_" d="M328.2,50c0-1.4-0.3-2.6-1-3.5c-0.7-0.9-1.6-1.4-2.8-1.4c-0.8,0-1.5,0.3-2.2,0.8
				c-0.6,0.5-1.1,1.2-1.3,2.1c-0.1,0.4-0.1,0.7-0.1,1v2.4c0,1,0.3,1.9,1,2.7c0.6,0.7,1.5,1.1,2.5,1.1c1.2,0,2.1-0.5,2.8-1.4
				C327.9,52.7,328.2,51.5,328.2,50z M331.5,49.9c0,2.4-0.7,4.4-2,5.8c-1.2,1.3-2.7,1.9-4.4,1.9c-1.9,0-3.3-0.7-4.1-2h-0.1v7.6h-3.2
				V47.6c0-1.5,0-3.1-0.1-4.7h2.8l0.2,2.3h0.1c1.1-1.7,2.7-2.6,4.9-2.6c1.7,0,3.1,0.7,4.3,2C330.9,45.9,331.5,47.7,331.5,49.9z"/>
		</defs>
		<clipPath id="SVGID_58_">
			<use xlink:href="#SVGID_57_"  style="overflow:visible;"/>
		</clipPath>
		<rect x="312.6" y="37.6" class="st25" width="23.9" height="30.6"/>
	</g>
	<g>
		<defs>
			<path id="SVGID_59_" d="M309,48.9l-1.7-5.2c-0.2-0.5-0.5-1.8-1-3.8h-0.1c-0.2,0.8-0.5,2.1-1,3.8l-1.7,5.2H309z M314.9,57.3h-3.4
				l-1.9-5.9h-6.5l-1.8,5.9H298l6.4-20h4L314.9,57.3z"/>
		</defs>
		<clipPath id="SVGID_60_">
			<use xlink:href="#SVGID_59_"  style="overflow:visible;"/>
		</clipPath>
		<rect x="293" y="32.3" class="st26" width="26.9" height="30"/>
	</g>
	<g>
		<defs>
			<path id="SVGID_61_" d="M415,25.9c0-0.5-0.1-0.9-0.3-1.2c-0.3-0.4-0.7-0.7-1.3-0.7c-0.5,0-0.9,0.2-1.3,0.6
				c-0.3,0.3-0.4,0.7-0.5,1.2H415z M416.5,26.3c0,0.3,0,0.5-0.1,0.7h-4.7c0,0.7,0.2,1.2,0.7,1.6c0.4,0.3,0.9,0.5,1.5,0.5
				c0.7,0,1.3-0.1,1.9-0.3l0.2,1.1c-0.7,0.3-1.5,0.4-2.4,0.4c-1.1,0-2-0.3-2.6-1c-0.6-0.6-0.9-1.5-0.9-2.6c0-1.1,0.3-2,0.9-2.7
				c0.6-0.8,1.4-1.1,2.5-1.1c1,0,1.8,0.4,2.3,1.1C416.3,24.7,416.5,25.4,416.5,26.3z"/>
		</defs>
		<clipPath id="SVGID_62_">
			<use xlink:href="#SVGID_61_"  style="overflow:visible;"/>
		</clipPath>
		<rect x="405.2" y="17.9" class="st27" width="16.3" height="17.4"/>
	</g>
	<g>
		<defs>
			<path id="SVGID_63_" d="M407.9,30.1h-1.6v-4c0-1.3-0.5-1.9-1.4-1.9c-0.7,0-1.2,0.4-1.5,1.1c0,0.2-0.1,0.3-0.1,0.6v4.3h-1.6V19.8
				h1.6v4.3h0c0.5-0.8,1.2-1.2,2.1-1.2c0.7,0,1.2,0.2,1.6,0.6c0.5,0.5,0.8,1.3,0.8,2.4V30.1z"/>
		</defs>
		<clipPath id="SVGID_64_">
			<use xlink:href="#SVGID_63_"  style="overflow:visible;"/>
		</clipPath>
		<rect x="396.7" y="14.8" class="st28" width="16.2" height="20.3"/>
	</g>
	<g>
		<defs>
			<path id="SVGID_65_" d="M399.5,24.3h-1.7v3.4c0,0.9,0.3,1.3,0.9,1.3c0.3,0,0.5,0,0.7-0.1l0,1.2c-0.3,0.1-0.7,0.2-1.2,0.2
				c-0.6,0-1.1-0.2-1.5-0.6c-0.4-0.4-0.5-1-0.5-1.9v-3.6h-1v-1.2h1v-1.3l1.5-0.5v1.8h1.7L399.5,24.3L399.5,24.3z"/>
		</defs>
		<clipPath id="SVGID_66_">
			<use xlink:href="#SVGID_65_"  style="overflow:visible;"/>
		</clipPath>
		<rect x="390.2" y="16.3" class="st29" width="14.3" height="19"/>
	</g>
	<g>
		<defs>
			<path id="SVGID_67_" d="M388.9,30.1h-1.6v-4.1c0-1.2-0.5-1.9-1.4-1.9c-0.5,0-0.8,0.2-1.1,0.5c-0.3,0.3-0.4,0.7-0.4,1.2v4.2h-1.6
				v-5c0-0.6,0-1.3-0.1-2h1.4l0.1,1.1h0c0.2-0.3,0.5-0.6,0.8-0.9c0.4-0.3,0.9-0.4,1.4-0.4c0.7,0,1.2,0.2,1.6,0.6
				c0.5,0.5,0.8,1.3,0.8,2.3V30.1z"/>
		</defs>
		<clipPath id="SVGID_68_">
			<use xlink:href="#SVGID_67_"  style="overflow:visible;"/>
		</clipPath>
		<rect x="377.7" y="17.9" class="st30" width="16.2" height="17.2"/>
	</g>
	<g>
		<defs>
			<path id="SVGID_69_" d="M378.8,26.6c0-0.7-0.1-1.2-0.4-1.7c-0.3-0.6-0.8-0.8-1.4-0.8c-0.6,0-1.1,0.3-1.4,0.8
				c-0.3,0.5-0.4,1-0.4,1.7c0,0.7,0.1,1.2,0.4,1.7c0.3,0.6,0.8,0.8,1.4,0.8c0.6,0,1.1-0.3,1.4-0.9C378.7,27.8,378.8,27.3,378.8,26.6
				z M380.5,26.6c0,1.1-0.3,2-0.9,2.7c-0.7,0.7-1.5,1.1-2.6,1.1c-1,0-1.9-0.3-2.5-1c-0.6-0.7-0.9-1.6-0.9-2.6c0-1.1,0.3-2,1-2.7
				c0.6-0.7,1.5-1,2.6-1c1,0,1.9,0.3,2.5,1C380.2,24.6,380.5,25.5,380.5,26.6z"/>
		</defs>
		<clipPath id="SVGID_70_">
			<use xlink:href="#SVGID_69_"  style="overflow:visible;"/>
		</clipPath>
		<rect x="368.5" y="17.9" class="st31" width="16.9" height="17.4"/>
	</g>
	<g>
		<defs>
			<path id="SVGID_71_" d="M365.3,27.2V26c0-0.2,0-0.4,0-0.5c-0.1-0.4-0.3-0.7-0.6-1c-0.3-0.3-0.6-0.4-1.1-0.4c-0.6,0-1,0.2-1.4,0.7
				c-0.3,0.5-0.5,1.1-0.5,1.8c0,0.7,0.2,1.3,0.5,1.7c0.3,0.5,0.8,0.7,1.4,0.7c0.5,0,0.9-0.2,1.2-0.6
				C365.2,28.1,365.3,27.7,365.3,27.2z M367,30.1h-1.4l-0.1-1.1h0c-0.4,0.9-1.2,1.3-2.3,1.3c-0.9,0-1.6-0.3-2.1-1
				c-0.6-0.7-0.8-1.5-0.8-2.6c0-1.1,0.3-2.1,0.9-2.8c0.6-0.7,1.3-1,2.2-1c1,0,1.6,0.3,2,1h0v-4.1h1.6v8.4
				C366.9,28.9,366.9,29.6,367,30.1z"/>
		</defs>
		<clipPath id="SVGID_72_">
			<use xlink:href="#SVGID_71_"  style="overflow:visible;"/>
		</clipPath>
		<rect x="355.2" y="14.8" class="st32" width="16.8" height="20.5"/>
	</g>
	<g>
		<defs>
			<path id="SVGID_73_" d="M356.4,27.7v-1.1c-1.7,0-2.6,0.4-2.6,1.4c0,0.4,0.1,0.6,0.3,0.8c0.2,0.2,0.5,0.3,0.8,0.3
				c0.3,0,0.7-0.1,1-0.3c0.3-0.2,0.5-0.5,0.5-0.8C356.4,27.9,356.4,27.8,356.4,27.7z M358,30.1h-1.4l-0.1-0.8h0
				c-0.5,0.6-1.2,1-2.1,1c-0.7,0-1.2-0.2-1.6-0.6c-0.4-0.4-0.6-0.9-0.6-1.4c0-0.9,0.4-1.5,1.1-2c0.7-0.5,1.7-0.7,3.1-0.7v-0.1
				c0-0.9-0.5-1.4-1.5-1.4c-0.7,0-1.3,0.2-1.8,0.5l-0.3-1c0.7-0.4,1.5-0.6,2.4-0.6c1.9,0,2.8,1,2.8,2.9v2.6
				C357.9,29.2,358,29.7,358,30.1z"/>
		</defs>
		<clipPath id="SVGID_74_">
			<use xlink:href="#SVGID_73_"  style="overflow:visible;"/>
		</clipPath>
		<rect x="347.2" y="17.9" class="st33" width="15.8" height="17.4"/>
	</g>
	<g>
		<defs>
			<path id="SVGID_75_" d="M348.8,26.6c0-0.7-0.1-1.2-0.4-1.7c-0.3-0.6-0.8-0.8-1.4-0.8c-0.6,0-1.1,0.3-1.4,0.8
				c-0.3,0.5-0.4,1-0.4,1.7c0,0.7,0.1,1.2,0.4,1.7c0.3,0.6,0.8,0.8,1.4,0.8c0.6,0,1.1-0.3,1.4-0.9C348.6,27.8,348.8,27.3,348.8,26.6
				z M350.4,26.6c0,1.1-0.3,2-0.9,2.7c-0.7,0.7-1.5,1.1-2.6,1.1c-1,0-1.9-0.3-2.5-1c-0.6-0.7-0.9-1.6-0.9-2.6c0-1.1,0.3-2,1-2.7
				c0.6-0.7,1.5-1,2.6-1c1,0,1.9,0.3,2.5,1C350.1,24.6,350.4,25.5,350.4,26.6z"/>
		</defs>
		<clipPath id="SVGID_76_">
			<use xlink:href="#SVGID_75_"  style="overflow:visible;"/>
		</clipPath>
		<rect x="338.5" y="17.9" class="st34" width="16.9" height="17.4"/>
	</g>
	<g>
		<defs>
			<rect id="SVGID_77_" x="339.5" y="19.8" width="1.6" height="10.3"/>
		</defs>
		<clipPath id="SVGID_78_">
			<use xlink:href="#SVGID_77_"  style="overflow:visible;"/>
		</clipPath>
		<rect x="334.5" y="14.8" class="st35" width="11.6" height="20.3"/>
	</g>
	<g>
		<defs>
			<path id="SVGID_79_" d="M336.8,30.1h-1.6v-4.1c0-1.2-0.5-1.9-1.4-1.9c-0.5,0-0.8,0.2-1.1,0.5c-0.3,0.3-0.4,0.7-0.4,1.2v4.2h-1.6
				v-5c0-0.6,0-1.3-0.1-2h1.4l0.1,1.1h0c0.2-0.3,0.5-0.6,0.8-0.9c0.4-0.3,0.9-0.4,1.4-0.4c0.7,0,1.2,0.2,1.6,0.6
				c0.5,0.5,0.8,1.3,0.8,2.3V30.1z"/>
		</defs>
		<clipPath id="SVGID_80_">
			<use xlink:href="#SVGID_79_"  style="overflow:visible;"/>
		</clipPath>
		<rect x="325.6" y="17.9" class="st36" width="16.2" height="17.2"/>
	</g>
	<g>
		<defs>
			<path id="SVGID_81_" d="M328.6,23.1l-2.2,7.1h-1.4l-0.9-3.1c-0.2-0.8-0.4-1.5-0.6-2.3h0c-0.1,0.8-0.3,1.5-0.6,2.3l-1,3.1h-1.5
				l-2.1-7.1h1.6l0.8,3.4c0.2,0.8,0.4,1.6,0.5,2.3h0c0.1-0.6,0.3-1.3,0.6-2.3l1-3.4h1.3l1,3.3c0.2,0.8,0.4,1.6,0.6,2.3h0
				c0.1-0.7,0.3-1.5,0.5-2.3l0.9-3.3L328.6,23.1L328.6,23.1z"/>
		</defs>
		<clipPath id="SVGID_82_">
			<use xlink:href="#SVGID_81_"  style="overflow:visible;"/>
		</clipPath>
		<rect x="313.3" y="18.1" class="st37" width="20.3" height="17.1"/>
	</g>
	<g>
		<defs>
			<path id="SVGID_83_" d="M315.2,26.6c0-0.7-0.1-1.2-0.4-1.7c-0.3-0.6-0.8-0.8-1.4-0.8c-0.6,0-1.1,0.3-1.4,0.8
				c-0.3,0.5-0.4,1-0.4,1.7c0,0.7,0.1,1.2,0.4,1.7c0.3,0.6,0.8,0.8,1.4,0.8c0.6,0,1.1-0.3,1.4-0.9C315,27.8,315.2,27.3,315.2,26.6z
				 M316.8,26.6c0,1.1-0.3,2-0.9,2.7c-0.7,0.7-1.5,1.1-2.6,1.1c-1,0-1.9-0.3-2.5-1c-0.6-0.7-0.9-1.6-0.9-2.6c0-1.1,0.3-2,1-2.7
				c0.6-0.7,1.5-1,2.6-1c1,0,1.9,0.3,2.5,1C316.5,24.6,316.8,25.5,316.8,26.6z"/>
		</defs>
		<clipPath id="SVGID_84_">
			<use xlink:href="#SVGID_83_"  style="overflow:visible;"/>
		</clipPath>
		<rect x="304.8" y="17.9" class="st38" width="16.9" height="17.4"/>
	</g>
	<g>
		<defs>
			<path id="SVGID_85_" d="M306.3,25.1c0-1.1-0.3-2-0.9-2.6c-0.6-0.6-1.5-0.9-2.7-0.9c-0.5,0-0.9,0-1.3,0.1v7.3c0.2,0,0.5,0,1.1,0
				c1.2,0,2.1-0.3,2.8-1C306,27.3,306.3,26.3,306.3,25.1z M308,25c0,1.8-0.5,3.1-1.6,4c-1,0.8-2.4,1.2-4.2,1.2c-0.9,0-1.7,0-2.3-0.1
				v-9.6c0.8-0.1,1.7-0.2,2.7-0.2c1.7,0,3,0.4,3.9,1.1C307.5,22.2,308,23.4,308,25z"/>
		</defs>
		<clipPath id="SVGID_86_">
			<use xlink:href="#SVGID_85_"  style="overflow:visible;"/>
		</clipPath>
		<rect x="294.9" y="15.3" class="st39" width="18.1" height="20"/>
	</g>
</g>
<g>
	<path class="st40" d="M60.4,96c-22.6,0-41,18.4-41,41s18.4,41,41,41c22.6,0,41-18.4,41-41S83,96,60.4,96z M60.4,176
		c-21.5,0-39-17.5-39-39s17.5-39,39-39c21.5,0,39,17.5,39,39S81.9,176,60.4,176z"/>
	<path class="st41" d="M99.4,137c0,21.5-17.5,39-39,39c-21.5,0-39-17.5-39-39s17.5-39,39-39C81.9,98,99.4,115.5,99.4,137z"/>
	<path class="st40" d="M51.8,130.9h3.7v-3.6c0-1.6,0-4.1,1.2-5.6c1.2-1.6,2.9-2.7,5.8-2.7c4.7,0,6.7,0.7,6.7,0.7l-0.9,5.5
		c0,0-1.6-0.4-3-0.4c-1.4,0-2.7,0.5-2.7,2v4.2h5.9l-0.4,5.4h-5.5V155h-7v-18.7h-3.7V130.9z"/>
</g>
<g>
	<path class="st42" d="M159.9,96c-22.6,0-41,18.4-41,41s18.4,41,41,41c22.6,0,41-18.4,41-41S182.5,96,159.9,96z M159.9,176
		c-21.5,0-39-17.5-39-39s17.5-39,39-39c21.5,0,39,17.5,39,39S181.4,176,159.9,176z"/>
	<path class="st41" d="M198.9,137c0,21.5-17.5,39-39,39c-21.5,0-39-17.5-39-39s17.5-39,39-39C181.4,98,198.9,115.5,198.9,137z"/>
	<path class="st42" d="M177.9,127.8c-1.3,0.6-2.7,1-4.2,1.2c1.5-0.9,2.7-2.4,3.2-4.1c-1.4,0.8-3,1.5-4.7,1.8
		c-1.3-1.4-3.3-2.3-5.4-2.3c-4.1,0-7.4,3.3-7.4,7.4c0,0.6,0.1,1.1,0.2,1.7c-6.1-0.3-11.6-3.2-15.2-7.7c-0.6,1.1-1,2.4-1,3.7
		c0,2.6,1.3,4.8,3.3,6.1c-1.2,0-2.3-0.4-3.3-0.9v0.1c0,3.6,2.5,6.6,5.9,7.2c-0.6,0.2-1.3,0.3-1.9,0.3c-0.5,0-0.9,0-1.4-0.1
		c0.9,2.9,3.7,5.1,6.9,5.1c-2.5,2-5.7,3.2-9.2,3.2c-0.6,0-1.2,0-1.8-0.1c3.3,2.1,7.2,3.3,11.3,3.3c13.6,0,21-11.3,21-21
		c0-0.3,0-0.6,0-1C175.7,130.6,176.9,129.3,177.9,127.8"/>
</g>
<g>
	<path class="st43" d="M264.6,96c-22.6,0-41,18.4-41,41s18.4,41,41,41c22.6,0,41-18.4,41-41S287.2,96,264.6,96z M264.6,176
		c-21.5,0-39-17.5-39-39s17.5-39,39-39c21.5,0,39,17.5,39,39S286.1,176,264.6,176z"/>
	<path class="st41" d="M303.6,137c0,21.5-17.5,39-39,39c-21.5,0-39-17.5-39-39s17.5-39,39-39C286.1,98,303.6,115.5,303.6,137z"/>
	<g>
		<path class="st43" d="M259.6,138h6.8c-1.2,3.4-4.4,5.8-8.3,5.8c-4.6,0-8.4-3.7-8.6-8.3c-0.2-4.9,3.8-9,8.7-9
			c2.2,0,4.3,0.9,5.8,2.3c0.4,0.3,0.9,0.3,1.3,0l2.5-2.4c0.4-0.4,0.4-1,0-1.4c-2.4-2.3-5.7-3.8-9.3-3.8c-7.7-0.2-14.2,6.2-14.3,13.9
			c-0.1,7.8,6.2,14.1,14,14.1c7.5,0,13.6-5.8,14-13.2c0-0.1,0-3.2,0-3.2h-12.6c-0.5,0-0.9,0.4-0.9,0.9v3.4
			C258.7,137.6,259.1,138,259.6,138z"/>
		<path class="st43" d="M283.8,133v-3.4c0-0.5-0.4-0.8-0.8-0.8h-2.8c-0.5,0-0.8,0.4-0.8,0.8v3.4H276c-0.5,0-0.8,0.4-0.8,0.8v2.8
			c0,0.5,0.4,0.8,0.8,0.8h3.4v3.4c0,0.5,0.4,0.8,0.8,0.8h2.8c0.5,0,0.8-0.4,0.8-0.8v-3.4h3.4c0.5,0,0.8-0.4,0.8-0.8v-2.8
			c0-0.5-0.4-0.8-0.8-0.8H283.8L283.8,133z"/>
	</g>
</g>
<path class="st44" d="M376.7,125.1c0.9,0,1.8,0.4,2.5,1.1l12.8,13.2c1.4,1.4,1.4,3.7,0,5.1l-12.8,13.2c-1.4,1.4-3.6,1.4-5,0
	c-1.4-1.4-1.4-3.7,0-5.2l10.3-10.7l-10.3-10.7c-1.4-1.4-1.4-3.7,0-5.2C374.9,125.4,375.8,125.1,376.7,125.1z"/>
</svg>
