<svg xmlns="http://www.w3.org/2000/svg" viewBox="0 0 62.2 62.2"><title>twitter</title><path d="M31.1,0A31.1,31.1,0,1,0,62.2,31.1,31.07,31.07,0,0,0,31.1,0Z" fill="#2f97ed"/><path d="M45.4,23.7a17.9,17.9,0,0,1-3.5,1,5.9,5.9,0,0,0,2.7-3.3,14,14,0,0,1-3.7,1.4A5.66,5.66,0,0,0,36.6,21a5.91,5.91,0,0,0-5.9,5.9,3.9,3.9,0,0,0,.2,1.4,17,17,0,0,1-12.1-6.1,6.71,6.71,0,0,0-.8,3.1,5.66,5.66,0,0,0,2.7,4.9,4.49,4.49,0,0,1-2.7-.8h0a5.64,5.64,0,0,0,4.7,5.7,3.9,3.9,0,0,1-1.6.2,1.5,1.5,0,0,1-1-.2,5.92,5.92,0,0,0,5.5,4.1,11.6,11.6,0,0,1-7.4,2.5H16.8a17.58,17.58,0,0,0,9,2.7c10.8,0,16.8-9,16.8-16.8v-.8a14,14,0,0,0,2.8-3.1" fill="#fff"/></svg>